<svg width="1656" height="1045" viewBox="0 0 1656 1045" fill="none" xmlns="http://www.w3.org/2000/svg">
<path d="M1593.21 875.726C1451.68 1044.34 1153.36 1095.61 926.859 990.251L228.332 665.289C1.83564 559.982 -67.0576 337.898 74.4674 169.288C215.992 0.677664 514.342 -50.6084 740.838 54.6825L1439.34 379.644C1665.84 485.032 1734.73 707.116 1593.21 875.726Z" fill="#274D76"/>
<path d="M421.877 741.902C420.107 740.945 418.129 740.292 416.059 739.98C413.988 739.667 411.865 739.702 409.81 740.081C407.755 740.461 405.809 741.178 404.084 742.192C402.358 743.206 400.887 744.497 399.754 745.99L390.897 757.756C389.458 759.641 387.298 761.055 384.774 761.765C382.251 762.475 379.516 762.437 377.021 761.658L374.013 760.704H373.878C370.008 759.495 366.749 757.202 364.645 754.21C362.541 751.218 361.719 747.708 362.317 744.267L363.602 736.832C363.966 734.887 363.495 732.897 362.275 731.218C361.055 729.539 359.164 728.282 356.943 727.673C355.619 727.332 354.223 727.237 352.852 727.393C351.48 727.55 350.165 727.955 348.996 728.58C347.827 729.205 346.833 730.035 346.081 731.015C345.329 731.994 344.837 733.099 344.639 734.253L343.303 741.945C341.358 752.53 335.62 762.36 326.859 770.119C325.585 771.27 324.399 772.488 323.309 773.766V773.766C322.285 774.97 320.828 775.863 319.154 776.315C317.479 776.766 315.677 776.751 314.014 776.271C312.351 775.792 310.915 774.874 309.919 773.653C308.924 772.432 308.422 770.973 308.487 769.493L308.859 758.696C308.928 757.205 309.39 755.745 310.211 754.423L326.03 729.197C329.36 723.901 331.101 717.998 331.101 712.005V681.039C331.101 680.54 331.101 680.056 331.101 679.614C330.784 674.418 332.055 669.24 334.792 664.576C337.529 659.913 341.641 655.919 346.734 652.978L357.551 646.839C359.51 645.76 360.946 644.125 361.597 642.23C362.248 640.336 362.072 638.307 361.1 636.513C360.509 635.46 359.655 634.529 358.597 633.781C357.538 633.033 356.3 632.487 354.968 632.18C353.636 631.872 352.24 631.812 350.877 632.002C349.515 632.191 348.217 632.627 347.072 633.279L325.997 645.23C324.697 645.955 323.241 646.457 321.71 646.706C320.18 646.955 318.607 646.947 317.08 646.683C315.554 646.418 314.104 645.902 312.815 645.163C311.526 644.425 310.423 643.48 309.569 642.381C309.569 642.381 293.631 628.408 288.932 623.308C283.152 617.027 275.986 611.6 268.499 616.813C262.161 621.215 267.163 630.744 271.406 636.669C278.267 646.227 297.197 675.697 297.197 675.697C298.437 677.294 299.1 679.159 299.107 681.067V711.933C299.104 713.532 298.64 715.106 297.755 716.52L281.918 741.76C281.598 742.303 281.08 742.746 280.44 743.025C279.8 743.303 279.071 743.401 278.36 743.306C277.648 743.21 276.992 742.926 276.486 742.494C275.98 742.063 275.651 741.506 275.546 740.905L270.138 712.845C269.552 709.783 268.507 706.797 267.028 703.957C265.418 700.915 265.062 697.506 266.018 694.274C266.973 691.042 269.186 688.173 272.301 686.124L274.346 684.785C275.509 684.025 276.45 683.051 277.097 681.937C277.744 680.824 278.081 679.601 278.082 678.361V659.018C278.117 656.921 277.209 654.891 275.541 653.334C273.873 651.778 271.569 650.811 269.09 650.628C267.787 650.568 266.482 650.733 265.257 651.111C264.031 651.49 262.91 652.075 261.961 652.83C261.012 653.586 260.256 654.496 259.738 655.506C259.22 656.516 258.952 657.604 258.949 658.704V674.373C258.301 674.797 257.546 675.092 256.742 675.235C255.938 675.377 255.107 675.363 254.31 675.195C253.514 675.026 252.773 674.706 252.145 674.26C251.517 673.814 251.017 673.253 250.685 672.62L246.459 664.559C245.922 663.555 245.596 662.48 245.496 661.382L243.366 638.863C242.517 629.649 237.559 621.049 229.49 614.791C229.49 614.791 212.589 601.302 206.64 597.014C194.133 587.884 179.175 598.439 188.589 610.432C193.356 616.486 207.772 634.647 207.772 634.647C209.914 636.324 211.234 638.615 211.474 641.071L213.603 663.561C213.995 667.691 215.206 671.735 217.186 675.526V675.526C217.186 675.888 217.087 676.245 216.896 676.57C216.705 676.894 216.428 677.177 216.086 677.396C215.744 677.616 215.347 677.765 214.925 677.834C214.503 677.902 214.068 677.888 213.654 677.791L204.291 675.583C203.029 675.284 201.708 675.207 200.409 675.355C199.111 675.504 197.862 675.875 196.741 676.447C195.619 677.018 194.649 677.777 193.889 678.677C193.129 679.577 192.597 680.599 192.325 681.68C191.861 683.741 192.34 685.874 193.667 687.65C194.993 689.425 197.068 690.712 199.474 691.251L212.437 694.3C217.649 695.535 222.473 697.725 226.564 700.715C230.654 703.704 233.91 707.418 236.099 711.592L237.789 714.782C238.187 715.547 238.471 716.351 238.634 717.175L238.854 718.343C239.008 719.124 238.868 719.926 238.453 720.636C238.039 721.347 237.371 721.93 236.543 722.304C235.715 722.678 234.769 722.824 233.837 722.722C232.906 722.619 232.036 722.274 231.35 721.733L231.265 721.662L183.688 692.719C181.467 691.017 180.127 688.649 179.953 686.124L178.618 660.228C177.773 648.976 148.973 639.176 142.128 636.569C121.255 628.636 116.776 642.338 124.162 646.54L151.677 662.322C153.147 663.163 154.369 664.277 155.248 665.578C156.127 666.88 156.64 668.334 156.747 669.829L158.083 687.819C158.253 690.013 158.649 692.191 159.266 694.328H159.114L125.953 690.81C122.861 690.49 119.969 689.353 117.691 687.562C115.414 685.77 113.869 683.417 113.277 680.839C111.824 674.672 110.742 670.983 107.92 669.031C105.638 667.45 94.3987 668.119 93.0804 682.848C92.8776 685.226 89.4298 691.123 82.1115 690.981C78.7313 690.981 71.2947 694.2 70.5004 700.951C70.206 703.584 71.0668 706.216 72.9199 708.35C74.773 710.484 77.49 711.972 80.5566 712.532C80.5566 712.532 93.1312 714.611 99.7903 715.38C101.993 715.603 104.053 716.415 105.668 717.697C107.283 718.978 108.369 720.663 108.765 722.502C109.931 728.057 111.773 735.678 113.835 738.769C115.137 740.82 118.263 741.304 120.815 741.304C123.267 741.309 125.628 740.518 127.407 739.096C129.418 737.487 132.139 732.288 134.303 727.701C134.784 726.651 135.521 725.698 136.467 724.904C137.413 724.109 138.546 723.49 139.793 723.087C141.04 722.685 142.374 722.507 143.708 722.566C145.041 722.624 146.346 722.918 147.536 723.428C158.455 728.157 168.443 733.954 173.767 743.54C175.038 745.834 175.202 748.454 174.223 750.847L169.491 762.513V762.627C168.227 765.764 165.712 768.434 162.375 770.185C159.038 771.935 155.084 772.657 151.187 772.227L137.125 770.675C135.824 770.532 134.502 770.616 133.241 770.921C131.979 771.226 130.806 771.745 129.792 772.447C128.778 773.15 127.946 774.019 127.347 775.003C126.748 775.987 126.394 777.064 126.308 778.167C126.215 780.251 127.057 782.289 128.668 783.873C130.278 785.457 132.537 786.471 134.995 786.713L148.195 788.138C158.336 789.263 172.584 795.26 180.054 801.228C186.455 806.065 194.357 809.266 202.837 810.458C204.775 810.755 206.589 811.467 208.107 812.524C209.625 813.581 210.796 814.949 211.507 816.497L226.33 848.261L244.718 847.876C259.203 845.555 258.408 824.175 260.606 819.118C263.986 811.483 277.067 802.752 281.682 800.444C300.679 790.929 337.456 803.293 337.456 803.293L349.439 789.206C350.925 787.454 353.056 786.165 355.501 785.539C357.946 784.913 360.568 784.985 362.96 785.745L365.985 786.699C375.329 789.607 385.57 789.746 395.021 787.092C404.471 784.438 412.566 779.15 417.973 772.099L426.796 760.604C427.939 759.107 428.718 757.433 429.09 755.68C429.461 753.926 429.417 752.129 428.96 750.39C428.503 748.651 427.641 747.006 426.426 745.549C425.21 744.092 423.664 742.853 421.877 741.902V741.902Z" fill="#EC8C92"/>
<path d="M439.725 923.554L435.246 921.56C435.987 920.218 436.36 918.754 436.34 917.275C436.319 915.796 435.905 914.34 435.128 913.013C431.055 904.78 417.855 897.174 398.892 892.175L398.435 892.046C389.985 889.824 384.036 887.773 382.345 885.024L371.207 866.949C367.134 860.325 357.686 856.052 347.225 856.052C344.667 856.137 342.138 855.571 339.968 854.428C337.797 853.285 336.086 851.617 335.056 849.643C334.365 848.128 333.283 846.763 331.889 845.644C330.495 844.526 328.822 843.683 326.994 843.176C324.034 842.394 320.91 842.155 317.832 842.475C314.754 842.794 311.792 843.665 309.146 845.028C307.279 846 305.479 847.06 303.755 848.204C298.228 851.694 291.332 856.052 281.783 856.052L277.98 856.223C267.4 856.223 260.572 859.884 255.704 868.088L244.533 886.976C238.55 897.06 241.288 908.469 251.631 916.745L248.149 919.85C236.116 910.221 232.938 896.889 239.986 885.067L251.175 866.18C256.837 856.608 265.558 851.936 277.845 851.936L281.631 851.765C289.642 851.765 295.524 848.047 300.712 844.771C302.6 843.529 304.569 842.378 306.611 841.324C309.908 839.653 313.593 838.598 317.416 838.232C321.239 837.866 325.11 838.196 328.768 839.202C331.291 839.914 333.594 841.088 335.514 842.64C337.434 844.191 338.922 846.082 339.873 848.175C340.549 849.329 341.613 850.29 342.932 850.938C344.251 851.586 345.768 851.894 347.292 851.822C359.647 851.822 370.836 857.007 375.771 865.026L386.824 883.101C387.213 883.757 389.461 885.252 399.94 888.015L400.396 888.144C428.317 895.508 437.072 905.891 439.793 911.418C440.85 913.319 441.392 915.393 441.38 917.492C441.368 919.591 440.803 921.662 439.725 923.554V923.554Z" fill="#93B4F6"/>
<path d="M229.778 845.241C228.088 841.068 228.713 836.41 231.688 831.368C232.615 827.957 232.781 824.431 232.178 820.97L217.22 810.686C213.826 808.366 211.205 805.342 209.615 801.912L201.925 785.303C201.756 784.947 201.603 784.591 201.468 784.221C200.304 781.518 198.306 779.126 195.68 777.291C193.054 775.455 189.895 774.244 186.528 773.78L179.243 772.598C177.625 772.347 176.161 771.63 175.1 770.57C174.04 769.51 173.449 768.173 173.429 766.786C173.492 765.916 173.774 765.066 174.258 764.295C174.742 763.523 175.416 762.848 176.235 762.314C177.092 761.742 178.084 761.331 179.146 761.11C180.207 760.889 181.312 760.862 182.387 761.032L197.496 763.482C199.031 763.734 200.622 763.488 201.951 762.793C203.28 762.098 204.248 761.006 204.663 759.736L204.747 759.522C204.747 759.422 210.46 749.01 211.863 745.478C212.843 742.985 215.834 735.422 223.693 737.359C229.051 738.669 227.445 744.481 226.279 748.668C226.11 749.281 225.941 749.879 225.806 750.42C224.538 755.577 221.074 766.088 219.637 770.362C219.341 771.203 219.341 772.098 219.637 772.94C222.505 780.499 226.135 787.837 230.488 794.875V795.018C230.807 795.69 231.325 796.283 231.992 796.741L247.406 807.324C247.535 807.399 247.688 807.439 247.845 807.439C248.002 807.439 248.155 807.399 248.285 807.324C248.407 807.272 248.506 807.189 248.57 807.087C248.634 806.985 248.658 806.869 248.64 806.755L244.786 790.645C244.34 788.77 244.192 786.854 244.347 784.947C244.461 783.281 243.878 781.633 242.697 780.292C241.517 778.952 239.816 778.003 237.89 777.612L236.386 777.284C235.335 777.06 234.361 776.63 233.544 776.028C232.728 775.427 232.092 774.671 231.688 773.823L226.989 763.453C226.389 762.143 226.351 760.697 226.882 759.365C227.412 758.033 228.479 756.9 229.896 756.161C230.521 755.776 231.241 755.517 232.003 755.404C232.765 755.29 233.547 755.325 234.29 755.505C236.471 756.118 237.671 758.112 238.279 759.565L242.014 767.627C242.744 767.681 243.479 767.573 244.144 767.313C245.445 766.872 246.02 766.288 246.054 766.117L246.578 759.935C246.61 759.455 246.547 758.974 246.392 758.511L244.262 752.215C242.393 746.746 243.133 740.879 246.324 735.863C247.111 734.027 248.113 732.261 249.316 730.593C252.459 725.964 257.648 725.138 261.147 726.32C264.138 727.331 267.096 730.28 265.608 735.251C265.423 735.863 265.152 736.518 264.882 737.231C263.327 741.062 260.994 746.874 268.735 759.807C268.735 759.949 268.854 759.978 268.921 759.992C268.979 760.016 269.043 760.028 269.107 760.028C269.171 760.028 269.235 760.016 269.293 759.992L274.144 757.029C275.042 756.475 276.073 756.094 277.165 755.912C278.258 755.73 279.384 755.751 280.465 755.975C281.447 756.17 282.365 756.547 283.152 757.079C283.938 757.612 284.574 758.286 285.011 759.052C285.648 760.323 285.742 761.74 285.276 763.062C284.811 764.385 283.815 765.53 282.459 766.302L275.698 770.404C273.199 771.887 271.117 773.813 269.599 776.048C268.08 778.283 267.162 780.771 266.91 783.338L266.741 785.36C266.673 785.738 266.673 786.122 266.741 786.5L266.893 787.169C267.086 787.806 267.467 788.392 268.003 788.87C268.538 789.349 269.209 789.704 269.952 789.904C274.499 791.172 282.797 788.323 292.735 782.07C293.676 781.49 294.778 781.125 295.936 781.01C297.093 780.895 298.266 781.034 299.341 781.414C300.416 781.794 301.356 782.401 302.07 783.178C302.784 783.954 303.248 784.873 303.417 785.845C303.738 787.953 303.974 790.36 304.126 792.966L301.371 793.08C301.219 790.531 301 788.195 300.679 786.144C300.595 785.571 300.334 785.027 299.922 784.567C299.509 784.107 298.96 783.747 298.329 783.523C297.688 783.292 296.986 783.208 296.294 783.281C295.602 783.353 294.945 783.579 294.391 783.936C283.558 790.744 274.566 793.65 269.039 792.098C267.861 791.77 266.799 791.198 265.951 790.434C265.104 789.669 264.497 788.738 264.189 787.725L264.003 786.97C263.865 786.389 263.82 785.795 263.868 785.204L264.037 783.167C264.323 780.262 265.361 777.446 267.078 774.916C268.795 772.386 271.149 770.205 273.975 768.524L280.735 764.422C281.59 763.962 282.227 763.265 282.536 762.45C282.845 761.636 282.806 760.756 282.425 759.964C282.16 759.501 281.774 759.094 281.298 758.774C280.821 758.453 280.265 758.227 279.67 758.112C278.979 757.971 278.259 757.959 277.561 758.077C276.863 758.195 276.204 758.441 275.631 758.796L270.78 761.758C270.389 761.999 269.936 762.161 269.458 762.23C268.98 762.299 268.49 762.274 268.025 762.157C267.597 762.059 267.201 761.879 266.867 761.632C266.533 761.386 266.27 761.078 266.099 760.733C257.901 747.03 260.454 740.678 262.144 736.518C262.414 735.877 262.651 735.293 262.82 734.724C263.868 731.205 262.059 729.211 259.997 728.513C257.58 727.687 253.913 728.371 251.547 731.789C250.431 733.336 249.503 734.973 248.775 736.675L248.673 736.903C245.76 741.403 245.073 746.692 246.764 751.617L248.826 757.827C249.082 758.571 249.179 759.348 249.113 760.12L248.589 766.288C248.487 767.541 247.152 768.724 245.023 769.464C244.228 769.749 241.473 770.561 239.8 769.322L239.547 769.137L235.507 760.419C234.612 758.468 233.817 757.87 233.209 757.713C232.848 757.659 232.477 757.671 232.121 757.747C231.766 757.823 231.434 757.962 231.147 758.155C230.275 758.606 229.618 759.301 229.291 760.118C228.964 760.935 228.987 761.823 229.355 762.627L234.155 773.011C234.398 773.517 234.781 773.968 235.272 774.325C235.763 774.681 236.348 774.934 236.978 775.062L238.482 775.39C241.028 775.912 243.273 777.177 244.82 778.96C246.366 780.743 247.115 782.929 246.933 785.132C246.785 786.848 246.91 788.573 247.304 790.26L251.175 806.37C251.306 806.959 251.213 807.568 250.91 808.11C250.606 808.653 250.108 809.1 249.485 809.39C248.865 809.712 248.14 809.864 247.413 809.823C246.686 809.782 245.992 809.551 245.428 809.162L230.048 798.593C229.026 797.898 228.229 796.997 227.733 795.972C223.302 788.824 219.615 781.365 216.713 773.68C216.256 772.408 216.256 771.05 216.713 769.778C218.133 765.504 221.598 755.078 222.848 749.993C222.984 749.423 223.152 748.825 223.322 748.184C224.521 743.911 225.282 740.279 222.662 739.638C218.927 738.726 216.392 740.706 214.212 746.261C212.826 749.765 207.671 759.323 207.046 760.505C206.434 762.327 205.034 763.889 203.122 764.884C201.21 765.878 198.925 766.232 196.719 765.875L181.609 763.425C180.921 763.321 180.214 763.341 179.536 763.484C178.857 763.626 178.222 763.888 177.671 764.251C176.995 764.645 176.478 765.204 176.189 765.852C175.9 766.501 175.852 767.208 176.052 767.88C176.252 768.551 176.691 769.156 177.309 769.612C177.928 770.068 178.697 770.355 179.513 770.433L186.781 771.615C190.633 772.158 194.244 773.557 197.242 775.668C200.239 777.779 202.515 780.524 203.834 783.623C203.953 783.936 204.088 784.264 204.24 784.577L212.15 801.071C213.572 804.122 215.9 806.815 218.91 808.891L234.713 819.731V820.172C235.491 824.135 235.318 828.189 234.206 832.094L234.105 832.308C231.434 836.795 230.809 840.854 232.279 844.486L229.778 845.241Z" fill="white"/>
<path d="M172.939 912.059C171.384 896.547 184.651 867.12 199.22 853.759C204.662 848.759 209.969 846.224 214.972 846.224H240.882C244.46 846.202 247.883 844.994 250.413 842.862C252.943 840.73 254.376 837.844 254.403 834.829C254.402 828.417 256.195 822.095 259.637 816.377C263.08 810.66 268.074 805.706 274.214 801.921C280.354 798.135 287.468 795.623 294.976 794.59C302.485 793.556 310.177 794.03 317.428 795.972L336.763 801.157C346.251 803.641 356.043 805.213 365.951 805.843C446.756 811.369 480.88 847.506 488.265 867.989L492.474 879.583L487.623 880.836L483.415 869.228C476.384 849.785 443.629 815.443 365.529 810.102C355.25 809.42 345.095 807.762 335.258 805.159L315.923 799.989C309.433 798.25 302.548 797.827 295.826 798.752C289.105 799.677 282.738 801.926 277.241 805.315C271.745 808.703 267.274 813.137 264.193 818.255C261.112 823.374 259.506 829.033 259.507 834.772C259.48 838.921 257.513 842.893 254.032 845.826C250.552 848.76 245.838 850.418 240.916 850.44H214.972C211.491 850.44 207.333 852.577 202.955 856.594C189.434 869.028 176.556 897.331 177.992 911.646L172.939 912.059Z" fill="#274D76"/>
<g filter="url(#filter0_d_4_64)">
<path d="M441.062 340.131V332.365H444.097L444.425 336.412C445.938 337.36 447.323 338.08 448.581 338.572C449.857 339.046 451.006 339.283 452.026 339.283C454.305 339.283 456.183 338.591 457.659 337.205C459.154 335.802 459.901 334.024 459.901 331.873C459.901 330.069 459.437 328.537 458.507 327.279C457.559 326.022 455.891 324.718 453.503 323.369L450.659 321.729C447.269 319.815 444.871 317.992 443.468 316.26C442.064 314.51 441.362 312.514 441.362 310.272C441.362 307.173 442.474 304.602 444.698 302.561C446.922 300.501 449.711 299.471 453.065 299.471C454.907 299.471 456.711 299.608 458.479 299.881C460.248 300.154 461.979 300.574 463.675 301.139V308.248H460.64L460.284 304.365C459.099 303.618 457.924 303.062 456.757 302.697C455.608 302.333 454.478 302.151 453.366 302.151C451.653 302.151 450.185 302.825 448.964 304.174C447.743 305.505 447.132 307.118 447.132 309.014C447.132 311.821 448.964 314.264 452.628 316.342L455.499 317.983C459.473 320.243 462.153 322.212 463.538 323.889C464.924 325.566 465.616 327.671 465.616 330.205C465.616 333.578 464.358 336.385 461.843 338.627C459.345 340.851 456.219 341.963 452.464 341.963C450.276 341.963 448.226 341.808 446.312 341.498C444.416 341.188 442.666 340.733 441.062 340.131ZM486.124 341.635C481.749 341.635 478.295 340.25 475.761 337.479C473.227 334.708 471.96 330.916 471.96 326.104C471.96 321.309 473.227 317.527 475.761 314.756C478.295 311.985 481.749 310.6 486.124 310.6C490.517 310.6 493.972 311.985 496.487 314.756C499.021 317.527 500.288 321.309 500.288 326.104C500.288 330.898 499.021 334.69 496.487 337.479C493.972 340.25 490.517 341.635 486.124 341.635ZM486.124 338.928C488.567 338.928 490.581 337.725 492.167 335.319C493.771 332.894 494.573 329.822 494.573 326.104C494.573 322.385 493.771 319.322 492.167 316.916C490.581 314.492 488.567 313.279 486.124 313.279C483.681 313.279 481.667 314.492 480.081 316.916C478.495 319.322 477.702 322.385 477.702 326.104C477.702 329.822 478.495 332.894 480.081 335.319C481.667 337.725 483.681 338.928 486.124 338.928ZM515.519 319.35V338.244H519.565V340.951H506.058V338.244H510.104V313.963H506.058V311.256H515.519V316.834C517.943 312.678 521.17 310.6 525.198 310.6C525.8 310.6 526.392 310.709 526.976 310.928V318.338H523.612V315.303H522.737C520.422 315.303 518.016 316.652 515.519 319.35ZM540.839 319.35V338.244H544.886V340.951H531.378V338.244H535.425V313.963H531.378V311.256H540.839V316.834C543.263 312.678 546.49 310.6 550.519 310.6C551.12 310.6 551.713 310.709 552.296 310.928V318.338H548.933V315.303H548.058C545.743 315.303 543.336 316.652 540.839 319.35ZM569.44 340.951L558.229 313.963H555.851V311.256H568.128V313.963H564.054L572.476 334.197L581.499 313.963H577.452V311.256H586.831V313.963H584.452L572.257 341.279L567.581 351.752H561.183L569.44 340.951ZM593.694 340.951V335.565H599.081V340.951H593.694ZM595.034 330.151L593.694 308.576V300.483H599.081V308.576L597.741 330.151H595.034ZM634.081 341.279L626.097 313.963H623.745V311.256H635.421V313.963H631.374L636.979 333.104L645.155 311.256H648.081L655.765 333.158L662.026 313.963H657.979V311.256H667.222V313.963H664.87L655.929 341.279H653.249L645.292 318.612L636.788 341.279H634.081ZM695.987 339.612C692.56 340.96 689.416 341.635 686.554 341.635C682.215 341.635 678.688 340.168 675.972 337.233C673.256 334.279 671.897 330.47 671.897 325.803C671.897 321.337 673.119 317.691 675.562 314.865C678.004 312.022 681.14 310.6 684.968 310.6C688.504 310.6 691.22 311.794 693.116 314.182C695.03 316.57 695.987 319.988 695.987 324.436V325.447H677.64C677.64 329.348 678.496 332.402 680.21 334.608C681.924 336.813 684.302 337.916 687.347 337.916C690.282 337.916 693.162 337.132 695.987 335.565V339.612ZM677.968 322.74H690.272V322.057C690.272 316.205 688.404 313.279 684.667 313.279C682.625 313.279 681.049 314.072 679.937 315.658C678.825 317.226 678.168 319.587 677.968 322.74ZM744.112 339.94C741.25 341.07 738.534 341.635 735.964 341.635C731.516 341.635 727.934 340.204 725.218 337.342C722.52 334.462 721.171 330.67 721.171 325.967C721.171 321.355 722.456 317.645 725.026 314.838C727.615 312.013 731.024 310.6 735.253 310.6C736.401 310.6 737.714 310.709 739.19 310.928C740.667 311.147 742.308 311.484 744.112 311.94V318.694H741.077L740.749 314.975C739.965 314.41 739.145 313.99 738.288 313.717C737.45 313.425 736.584 313.279 735.69 313.279C733.175 313.279 731.078 314.492 729.401 316.916C727.743 319.341 726.913 322.376 726.913 326.022C726.913 329.722 727.77 332.63 729.483 334.744C731.215 336.859 733.576 337.916 736.565 337.916C739.136 337.916 741.651 337.351 744.112 336.221V339.94ZM765.851 341.635C761.476 341.635 758.021 340.25 755.487 337.479C752.953 334.708 751.687 330.916 751.687 326.104C751.687 321.309 752.953 317.527 755.487 314.756C758.021 311.985 761.476 310.6 765.851 310.6C770.244 310.6 773.698 311.985 776.214 314.756C778.748 317.527 780.015 321.309 780.015 326.104C780.015 330.898 778.748 334.69 776.214 337.479C773.698 340.25 770.244 341.635 765.851 341.635ZM765.851 338.928C768.293 338.928 770.308 337.725 771.894 335.319C773.498 332.894 774.3 329.822 774.3 326.104C774.3 322.385 773.498 319.322 771.894 316.916C770.308 314.492 768.293 313.279 765.851 313.279C763.408 313.279 761.394 314.492 759.808 316.916C758.222 319.322 757.429 322.385 757.429 326.104C757.429 329.822 758.222 332.894 759.808 335.319C761.394 337.725 763.408 338.928 765.851 338.928ZM808.069 340.951V335.373C806.702 337.451 805.125 339.019 803.339 340.076C801.552 341.115 799.556 341.635 797.351 341.635C794.817 341.635 792.821 340.796 791.362 339.119C789.904 337.442 789.175 335.127 789.175 332.174V313.963H785.128V311.256H794.562V331.326C794.562 333.66 794.908 335.291 795.601 336.221C796.293 337.132 797.496 337.588 799.21 337.588C800.687 337.588 802.163 337.196 803.64 336.412C805.116 335.61 806.593 334.425 808.069 332.858V313.963H804.022V311.256H813.456V338.244H817.503V340.951H808.069ZM832.323 297.776V338.244H836.37V340.951H822.89V338.244H826.937V300.483H822.89V297.776H832.323ZM864.233 340.951V335.373C862.921 337.451 861.39 339.019 859.64 340.076C857.908 341.115 855.966 341.635 853.815 341.635C850.461 341.635 847.791 340.313 845.804 337.67C843.817 335.009 842.823 331.445 842.823 326.979C842.823 322.02 843.963 318.056 846.241 315.084C848.52 312.095 851.546 310.6 855.319 310.6C857.051 310.6 858.664 310.937 860.159 311.612C861.672 312.286 863.067 313.298 864.343 314.647L864.233 311.256V300.483H860.187V297.776H869.647V338.244H873.694V340.951H864.233ZM864.233 317.682C862.939 316.552 861.599 315.704 860.214 315.139C858.828 314.574 857.407 314.291 855.948 314.291C853.633 314.291 851.819 315.321 850.507 317.381C849.213 319.423 848.565 322.257 848.565 325.885C848.565 329.786 849.149 332.712 850.315 334.662C851.5 336.613 853.259 337.588 855.593 337.588C857.197 337.588 858.719 337.178 860.159 336.358C861.599 335.537 862.957 334.316 864.233 332.694V317.682ZM888.542 316.834C889.909 314.756 891.486 313.197 893.272 312.158C895.059 311.119 897.055 310.6 899.261 310.6C901.813 310.6 903.809 311.438 905.249 313.115C906.707 314.793 907.437 317.098 907.437 320.033V338.244H911.483V340.951H898.003V338.244H902.05V320.881C902.05 318.566 901.703 316.953 901.011 316.041C900.336 315.112 899.133 314.647 897.401 314.647C895.907 314.647 894.421 315.039 892.944 315.822C891.468 316.606 890 317.782 888.542 319.35V338.244H892.589V340.951H879.108V338.244H883.155V313.963H879.108V311.256H888.542V316.834ZM918.675 312.623V310.6C920.479 310.29 921.382 308.266 921.382 304.529H918.675V297.776H925.429V303.572C925.429 308.786 923.177 311.803 918.675 312.623ZM950.995 340.787C949.664 341.352 948.306 341.635 946.921 341.635C943.858 341.635 941.607 340.833 940.167 339.229C938.727 337.625 938.007 335.109 938.007 331.682V314.291H933.96V311.256H938.007V305.869L943.421 304.529V311.256H950.995V314.291H943.421V332.393C943.421 334.453 943.785 336.002 944.515 337.041C945.244 338.08 946.328 338.6 947.769 338.6C948.698 338.6 949.774 338.317 950.995 337.752V340.787ZM978.667 314.291H973.937V311.256H978.667V309.834C978.667 305.332 979.387 302.087 980.827 300.1C982.285 298.095 984.646 297.092 987.909 297.092C989.131 297.092 990.315 297.265 991.464 297.612C992.631 297.94 993.761 298.441 994.854 299.115V303.846H991.491V301.494C990.908 300.929 990.306 300.51 989.687 300.237C989.085 299.945 988.474 299.799 987.854 299.799C986.597 299.799 985.649 300.364 985.011 301.494C984.373 302.625 984.054 304.32 984.054 306.58V311.256H991.491V314.291H984.054V338.244H988.101V340.951H974.62V338.244H978.667V314.291ZM1007 311.256V338.244H1011.04V340.951H997.562V338.244H1001.61V313.963H997.562V311.256H1007ZM1001.61 305.869V300.483H1007V305.869H1001.61ZM1025.92 316.834C1027.28 314.756 1028.86 313.197 1030.65 312.158C1032.43 311.119 1034.43 310.6 1036.64 310.6C1039.19 310.6 1041.18 311.438 1042.62 313.115C1044.08 314.793 1044.81 317.098 1044.81 320.033V338.244H1048.86V340.951H1035.38V338.244H1039.42V320.881C1039.42 318.566 1039.08 316.953 1038.39 316.041C1037.71 315.112 1036.51 314.647 1034.78 314.647C1033.28 314.647 1031.8 315.039 1030.32 315.822C1028.84 316.606 1027.38 317.782 1025.92 319.35V338.244H1029.96V340.951H1016.48V338.244H1020.53V313.963H1016.48V311.256H1025.92V316.834ZM1075.71 340.951V335.373C1074.4 337.451 1072.87 339.019 1071.12 340.076C1069.38 341.115 1067.44 341.635 1065.29 341.635C1061.94 341.635 1059.27 340.313 1057.28 337.67C1055.29 335.009 1054.3 331.445 1054.3 326.979C1054.3 322.02 1055.44 318.056 1057.72 315.084C1060 312.095 1063.02 310.6 1066.8 310.6C1068.53 310.6 1070.14 310.937 1071.64 311.612C1073.15 312.286 1074.54 313.298 1075.82 314.647L1075.71 311.256V300.483H1071.66V297.776H1081.12V338.244H1085.17V340.951H1075.71ZM1075.71 317.682C1074.42 316.552 1073.08 315.704 1071.69 315.139C1070.31 314.574 1068.88 314.291 1067.42 314.291C1065.11 314.291 1063.3 315.321 1061.98 317.381C1060.69 319.423 1060.04 322.257 1060.04 325.885C1060.04 329.786 1060.63 332.712 1061.79 334.662C1062.98 336.613 1064.74 337.588 1067.07 337.588C1068.67 337.588 1070.2 337.178 1071.64 336.358C1073.08 335.537 1074.43 334.316 1075.71 332.694V317.682ZM1126.76 336.877C1125.16 338.463 1123.56 339.657 1121.98 340.459C1120.39 341.243 1118.81 341.635 1117.25 341.635C1114.73 341.635 1112.63 340.842 1110.96 339.256C1109.28 337.652 1108.44 335.647 1108.44 333.24C1108.44 329.959 1109.77 327.507 1112.43 325.885C1115.09 324.244 1119.09 323.424 1124.41 323.424H1125.53V319.76C1125.53 315.44 1123.69 313.279 1120.01 313.279C1117.84 313.279 1115.85 314.091 1114.05 315.713L1113.72 318.694H1110.68V313.088C1114.49 311.429 1118.01 310.6 1121.24 310.6C1127.69 310.6 1130.92 313.562 1130.92 319.487V332.721C1130.92 336.403 1131.83 338.244 1133.65 338.244C1134 338.244 1134.44 338.181 1134.96 338.053L1135.32 340.951C1134.01 341.407 1132.84 341.635 1131.82 341.635C1129.16 341.635 1127.47 340.049 1126.76 336.877ZM1125.53 335.401V326.104H1124.25C1120.89 326.104 1118.38 326.641 1116.7 327.717C1115.02 328.774 1114.18 330.378 1114.18 332.529C1114.18 334.079 1114.68 335.364 1115.69 336.385C1116.69 337.406 1117.96 337.916 1119.49 337.916C1120.34 337.916 1121.27 337.707 1122.28 337.287C1123.28 336.868 1124.36 336.239 1125.53 335.401ZM1149.18 316.834C1150.55 314.756 1152.13 313.197 1153.91 312.158C1155.7 311.119 1157.7 310.6 1159.9 310.6C1162.45 310.6 1164.45 311.438 1165.89 313.115C1167.35 314.793 1168.08 317.098 1168.08 320.033V338.244H1172.12V340.951H1158.64V338.244H1162.69V320.881C1162.69 318.566 1162.34 316.953 1161.65 316.041C1160.98 315.112 1159.77 314.647 1158.04 314.647C1156.55 314.647 1155.06 315.039 1153.58 315.822C1152.11 316.606 1150.64 317.782 1149.18 319.35V338.244H1153.23V340.951H1139.75V338.244H1143.8V313.963H1139.75V311.256H1149.18V316.834ZM1188.94 340.951L1177.73 313.963H1175.35V311.256H1187.63V313.963H1183.55L1191.98 334.197L1201 313.963H1196.95V311.256H1206.33V313.963H1203.95L1191.76 341.279L1187.08 351.752H1180.68L1188.94 340.951ZM449.675 382.834C451.243 380.756 452.883 379.197 454.597 378.158C456.31 377.119 458.097 376.6 459.956 376.6C462.125 376.6 463.839 377.119 465.097 378.158C466.373 379.197 467.193 380.756 467.558 382.834H467.913C469.481 380.756 471.112 379.197 472.808 378.158C474.521 377.119 476.308 376.6 478.167 376.6C480.628 376.6 482.569 377.384 483.991 378.951C485.413 380.501 486.124 382.634 486.124 385.35V404.244H490.171V406.951H476.663V404.244H480.71V386.334C480.71 384.438 480.373 383.016 479.698 382.069C479.042 381.121 478.039 380.647 476.69 380.647C475.305 380.647 473.883 381.039 472.425 381.822C470.966 382.606 469.463 383.782 467.913 385.35V404.244H471.96V406.951H458.452V404.244H462.499V386.334C462.499 384.438 462.162 383.016 461.487 382.069C460.831 381.121 459.828 380.647 458.479 380.647C457.094 380.647 455.663 381.039 454.187 381.822C452.728 382.606 451.224 383.782 449.675 385.35V404.244H453.722V406.951H440.241V404.244H444.288V379.963H440.241V377.256H449.675V382.834ZM513.003 402.877C511.399 404.463 509.804 405.657 508.218 406.459C506.632 407.243 505.055 407.635 503.487 407.635C500.972 407.635 498.875 406.842 497.198 405.256C495.521 403.652 494.683 401.647 494.683 399.24C494.683 395.959 496.013 393.507 498.675 391.885C501.336 390.244 505.328 389.424 510.651 389.424H511.772V385.76C511.772 381.44 509.931 379.279 506.249 379.279C504.08 379.279 502.093 380.091 500.288 381.713L499.96 384.694H496.925V379.088C500.735 377.429 504.253 376.6 507.479 376.6C513.933 376.6 517.159 379.562 517.159 385.487V398.721C517.159 402.403 518.071 404.244 519.894 404.244C520.24 404.244 520.677 404.181 521.206 404.053L521.562 406.951C520.249 407.407 519.082 407.635 518.062 407.635C515.4 407.635 513.714 406.049 513.003 402.877ZM511.772 401.401V392.104H510.487C507.133 392.104 504.618 392.641 502.94 393.717C501.263 394.774 500.425 396.378 500.425 398.529C500.425 400.079 500.926 401.364 501.929 402.385C502.931 403.406 504.198 403.916 505.729 403.916C506.586 403.916 507.516 403.707 508.519 403.287C509.521 402.868 510.606 402.239 511.772 401.401ZM543.354 406.787C542.024 407.352 540.666 407.635 539.28 407.635C536.218 407.635 533.966 406.833 532.526 405.229C531.086 403.625 530.366 401.109 530.366 397.682V380.291H526.319V377.256H530.366V371.869L535.78 370.529V377.256H543.354V380.291H535.78V398.393C535.78 400.453 536.145 402.002 536.874 403.041C537.603 404.08 538.688 404.6 540.128 404.6C541.058 404.6 542.133 404.317 543.354 403.752V406.787ZM572.175 405.94C569.313 407.07 566.597 407.635 564.026 407.635C559.578 407.635 555.996 406.204 553.28 403.342C550.582 400.462 549.233 396.67 549.233 391.967C549.233 387.355 550.519 383.645 553.089 380.838C555.677 378.013 559.086 376.6 563.315 376.6C564.464 376.6 565.776 376.709 567.253 376.928C568.729 377.147 570.37 377.484 572.175 377.94V384.694H569.14L568.812 380.975C568.028 380.41 567.207 379.99 566.351 379.717C565.512 379.425 564.646 379.279 563.753 379.279C561.237 379.279 559.141 380.492 557.464 382.916C555.805 385.341 554.976 388.376 554.976 392.022C554.976 395.722 555.832 398.63 557.546 400.744C559.278 402.859 561.638 403.916 564.628 403.916C567.198 403.916 569.714 403.351 572.175 402.221V405.94ZM588.526 382.834C589.894 380.756 591.47 379.197 593.257 378.158C595.043 377.119 597.039 376.6 599.245 376.6C601.797 376.6 603.793 377.438 605.233 379.115C606.692 380.793 607.421 383.098 607.421 386.033V404.244H611.468V406.951H597.987V404.244H602.034V386.881C602.034 384.566 601.688 382.953 600.995 382.041C600.321 381.112 599.127 380.647 597.413 380.647C596.119 380.647 594.733 381.039 593.257 381.822C591.78 382.606 590.203 383.782 588.526 385.35V404.244H592.573V406.951H579.093V404.244H583.14V366.483H579.093V363.776H588.526V382.834ZM625.276 377.256V404.244H629.323V406.951H615.843V404.244H619.89V379.963H615.843V377.256H625.276ZM619.89 371.869V366.483H625.276V371.869H619.89ZM644.198 382.834C645.565 380.756 647.142 379.197 648.929 378.158C650.715 377.119 652.711 376.6 654.917 376.6C657.469 376.6 659.465 377.438 660.905 379.115C662.364 380.793 663.093 383.098 663.093 386.033V404.244H667.14V406.951H653.659V404.244H657.706V386.881C657.706 384.566 657.36 382.953 656.667 382.041C655.993 381.112 654.789 380.647 653.058 380.647C651.563 380.647 650.077 381.039 648.601 381.822C647.124 382.606 645.657 383.782 644.198 385.35V404.244H648.245V406.951H634.765V404.244H638.812V379.963H634.765V377.256H644.198V382.834ZM677.612 405.803C675.552 404.873 674.522 403.57 674.522 401.893C674.522 400.963 674.951 400.061 675.808 399.186C676.683 398.293 677.977 397.418 679.69 396.561C677.685 395.649 676.181 394.401 675.179 392.815C674.176 391.229 673.675 389.306 673.675 387.045C673.675 383.873 674.687 381.339 676.71 379.444C678.752 377.548 681.468 376.6 684.858 376.6C685.916 376.6 686.909 376.7 687.839 376.901C688.787 377.083 689.68 377.365 690.519 377.748L700.937 376.928L699.241 380.975L693.39 379.936C695.085 382.087 695.933 384.42 695.933 386.936C695.933 390.089 694.894 392.641 692.815 394.592C690.737 396.543 688.03 397.518 684.694 397.518C683.655 397.518 682.653 397.39 681.687 397.135C680.921 397.682 680.338 398.229 679.937 398.776C679.554 399.322 679.362 399.86 679.362 400.389C679.362 401.61 680.465 402.221 682.671 402.221H687.401C691.94 402.221 695.067 402.704 696.78 403.67C698.494 404.636 699.351 406.395 699.351 408.947C699.351 411.809 698.056 414.106 695.468 415.838C692.879 417.57 689.461 418.436 685.214 418.436C681.131 418.436 677.849 417.852 675.37 416.686C672.891 415.519 671.651 413.979 671.651 412.065C671.651 410.825 672.144 409.686 673.128 408.647C674.131 407.608 675.625 406.66 677.612 405.803ZM679.062 387.182C679.062 389.825 679.545 391.812 680.511 393.143C681.477 394.473 682.926 395.139 684.858 395.139C686.754 395.139 688.176 394.455 689.124 393.088C690.072 391.721 690.546 389.679 690.546 386.963C690.546 384.283 690.054 382.278 689.069 380.947C688.103 379.617 686.645 378.951 684.694 378.951C682.817 378.951 681.404 379.635 680.456 381.002C679.526 382.369 679.062 384.429 679.062 387.182ZM679.772 406.268C678.861 407.015 678.177 407.799 677.722 408.619C677.266 409.44 677.038 410.296 677.038 411.19C677.038 412.703 677.694 413.833 679.007 414.58C680.338 415.346 682.315 415.729 684.94 415.729C687.675 415.729 689.881 415.182 691.558 414.088C693.235 412.994 694.073 411.563 694.073 409.795C694.073 408.61 693.599 407.726 692.651 407.143C691.703 406.559 690.282 406.268 688.386 406.268H679.772ZM732.081 385.35V404.244H736.128V406.951H722.62V404.244H726.667V379.963H722.62V377.256H732.081V382.834C734.506 378.678 737.732 376.6 741.761 376.6C742.362 376.6 742.955 376.709 743.538 376.928V384.338H740.175V381.303H739.3C736.985 381.303 734.578 382.652 732.081 385.35ZM773.042 405.612C769.615 406.96 766.47 407.635 763.608 407.635C759.27 407.635 755.743 406.168 753.026 403.233C750.31 400.279 748.952 396.47 748.952 391.803C748.952 387.337 750.174 383.691 752.616 380.865C755.059 378.022 758.194 376.6 762.022 376.6C765.559 376.6 768.275 377.794 770.171 380.182C772.085 382.57 773.042 385.988 773.042 390.436V391.447H754.694C754.694 395.348 755.551 398.402 757.265 400.608C758.978 402.813 761.357 403.916 764.401 403.916C767.336 403.916 770.216 403.132 773.042 401.565V405.612ZM755.022 388.74H767.327V388.057C767.327 382.205 765.459 379.279 761.722 379.279C759.68 379.279 758.103 380.072 756.991 381.658C755.879 383.226 755.223 385.587 755.022 388.74ZM781.601 405.447V398.858H784.964V402.221C786.185 403.114 787.37 403.789 788.519 404.244C789.667 404.7 790.779 404.928 791.854 404.928C793.586 404.928 794.99 404.481 796.065 403.588C797.159 402.695 797.706 401.537 797.706 400.115C797.706 397.964 796.129 396.278 792.976 395.057L790.214 393.99C784.581 391.803 781.765 388.777 781.765 384.912C781.765 382.506 782.722 380.519 784.636 378.951C786.568 377.384 789.011 376.6 791.964 376.6C793.44 376.6 794.926 376.737 796.421 377.01C797.934 377.283 799.456 377.703 800.987 378.268V384.694H797.624V381.303C796.621 380.628 795.637 380.127 794.671 379.799C793.723 379.453 792.784 379.279 791.854 379.279C790.433 379.279 789.239 379.717 788.272 380.592C787.306 381.467 786.823 382.543 786.823 383.819C786.823 384.985 787.261 385.96 788.136 386.744C789.011 387.51 790.697 388.403 793.194 389.424L795.71 390.463C798.463 391.593 800.377 392.769 801.452 393.99C802.546 395.194 803.093 396.752 803.093 398.666C803.093 401.309 802.035 403.47 799.921 405.147C797.825 406.806 795.081 407.635 791.69 407.635C789.922 407.635 788.19 407.453 786.495 407.088C784.818 406.723 783.187 406.177 781.601 405.447ZM831.366 406.951V401.373C829.999 403.451 828.422 405.019 826.636 406.076C824.849 407.115 822.853 407.635 820.647 407.635C818.114 407.635 816.118 406.796 814.659 405.119C813.201 403.442 812.472 401.127 812.472 398.174V379.963H808.425V377.256H817.858V397.326C817.858 399.66 818.205 401.291 818.897 402.221C819.59 403.132 820.793 403.588 822.507 403.588C823.983 403.588 825.46 403.196 826.937 402.412C828.413 401.61 829.89 400.425 831.366 398.858V379.963H827.319V377.256H836.753V404.244H840.8V406.951H831.366ZM855.62 363.776V404.244H859.667V406.951H846.187V404.244H850.233V366.483H846.187V363.776H855.62ZM882.472 406.787C881.141 407.352 879.783 407.635 878.397 407.635C875.335 407.635 873.084 406.833 871.644 405.229C870.203 403.625 869.483 401.109 869.483 397.682V380.291H865.437V377.256H869.483V371.869L874.897 370.529V377.256H882.472V380.291H874.897V398.393C874.897 400.453 875.262 402.002 875.991 403.041C876.72 404.08 877.805 404.6 879.245 404.6C880.175 404.6 881.25 404.317 882.472 403.752V406.787ZM889.444 405.447V398.858H892.808V402.221C894.029 403.114 895.214 403.789 896.362 404.244C897.511 404.7 898.623 404.928 899.698 404.928C901.43 404.928 902.834 404.481 903.909 403.588C905.003 402.695 905.55 401.537 905.55 400.115C905.55 397.964 903.973 396.278 900.819 395.057L898.058 393.99C892.425 391.803 889.608 388.777 889.608 384.912C889.608 382.506 890.565 380.519 892.479 378.951C894.412 377.384 896.854 376.6 899.808 376.6C901.284 376.6 902.77 376.737 904.265 377.01C905.778 377.283 907.3 377.703 908.831 378.268V384.694H905.468V381.303C904.465 380.628 903.481 380.127 902.515 379.799C901.567 379.453 900.628 379.279 899.698 379.279C898.276 379.279 897.082 379.717 896.116 380.592C895.15 381.467 894.667 382.543 894.667 383.819C894.667 384.985 895.104 385.96 895.979 386.744C896.854 387.51 898.541 388.403 901.038 389.424L903.554 390.463C906.306 391.593 908.22 392.769 909.296 393.99C910.39 395.194 910.937 396.752 910.937 398.666C910.937 401.309 909.879 403.47 907.765 405.147C905.668 406.806 902.925 407.635 899.534 407.635C897.766 407.635 896.034 407.453 894.339 407.088C892.662 406.723 891.03 406.177 889.444 405.447ZM937.761 406.951V400.197H944.515V406.951H937.761ZM937.761 384.01V377.256H944.515V384.01H937.761ZM966.034 412.338V415.045C962.151 412.639 959.071 409.121 956.792 404.49C954.513 399.86 953.374 394.811 953.374 389.342C953.374 384.019 954.532 379.015 956.847 374.33C959.18 369.627 962.243 366.109 966.034 363.776V366.483C961.185 370.985 958.761 378.623 958.761 389.397C958.761 400.188 961.185 407.835 966.034 412.338Z" fill="white"/>
</g>
<defs>
<filter id="filter0_d_4_64" x="436.241" y="297.092" width="774.09" height="129.344" filterUnits="userSpaceOnUse" color-interpolation-filters="sRGB">
<feFlood flood-opacity="0" result="BackgroundImageFix"/>
<feColorMatrix in="SourceAlpha" type="matrix" values="0 0 0 0 0 0 0 0 0 0 0 0 0 0 0 0 0 0 127 0" result="hardAlpha"/>
<feOffset dy="4"/>
<feGaussianBlur stdDeviation="2"/>
<feComposite in2="hardAlpha" operator="out"/>
<feColorMatrix type="matrix" values="0 0 0 0 0 0 0 0 0 0 0 0 0 0 0 0 0 0 0.25 0"/>
<feBlend mode="normal" in2="BackgroundImageFix" result="effect1_dropShadow_4_64"/>
<feBlend mode="normal" in="SourceGraphic" in2="effect1_dropShadow_4_64" result="shape"/>
</filter>
</defs>
</svg>
