<svg width="229" height="130" viewBox="0 0 229 130" fill="none" xmlns="http://www.w3.org/2000/svg">
<g filter="url(#filter0_b_4_63)">
<path d="M223.804 92.4807C212.361 103.007 180.485 74.391 155.15 82.3818C129.815 90.3726 131.844 38.6249 155.15 47.4703C178.457 56.3157 208.271 25.5776 223.804 36.5168C239.336 47.4561 206.243 68.0811 223.804 92.4807Z" fill="#B93838"/>
<path d="M32.0759 52.3844C32.0759 52.3844 58.1039 8.29981 73.1291 11.9747C79.484 13.5273 73.2811 18.8687 79.7543 20.0225C89.895 21.803 96.0133 -0.830458 112.069 1.03548C124.695 2.45986 113.929 18.0141 124.137 19.9655C130.458 21.1763 143.641 13.2852 147.309 17.7862C152.633 24.3383 131.472 44.6928 131.472 44.6928L32.0759 52.3844Z" fill="#B93838"/>
<path d="M102.453 115.257C62.8699 115.257 1.87328 83.4074 2.093 72.9382C2.21131 67.2407 9.68161 60.7883 19.366 54.7204C41.5552 40.9335 68.4288 33.5456 95.9962 33.6539H126.418C131.828 33.6501 137.186 34.5448 142.185 36.2868C147.184 38.0289 151.726 40.5842 155.553 43.8066C159.38 47.0289 162.415 50.8552 164.487 55.0668C166.558 59.2784 167.624 63.7927 167.624 68.3517C167.624 98.2637 137.861 115.257 102.453 115.257Z" fill="#E46553"/>
<path d="M77.2019 104.075C77.2019 104.075 138.401 120.313 131.134 126.794C123.866 133.275 67.3654 128.247 77.2019 104.075Z" fill="#B93838"/>
<path d="M53.8446 79.5901C51.1363 79.5929 48.4878 78.9186 46.2343 77.6526C43.9808 76.3865 42.2233 74.5856 41.1846 72.4776C40.1458 70.3697 39.8724 68.0494 40.3987 65.8104C40.925 63.5714 42.2276 61.5144 44.1415 59.8994C46.0554 58.2844 48.4947 57.1842 51.1508 56.7378C53.8068 56.2915 56.5602 56.5191 59.0627 57.3919C61.5652 58.2648 63.7044 59.7435 65.2094 61.6412C66.7145 63.5388 67.5177 65.77 67.5177 68.0525C67.5177 71.11 66.0777 74.0425 63.5139 76.2058C60.9502 78.3691 57.4725 79.5863 53.8446 79.5901ZM53.8446 59.3638C51.8048 59.361 49.8098 59.8682 48.1122 60.8213C46.4145 61.7743 45.0905 63.1302 44.3075 64.7176C43.5246 66.305 43.3181 68.0526 43.714 69.7389C44.1099 71.4253 45.0904 72.9748 46.5316 74.1913C47.9728 75.4079 49.8098 76.2368 51.8102 76.5732C53.8105 76.9097 55.8843 76.7385 57.7691 76.0813C59.654 75.4241 61.2652 74.3104 62.3988 72.8812C63.5324 71.452 64.1374 69.7716 64.1374 68.0525C64.133 65.7518 63.0477 63.5461 61.1188 61.9179C59.19 60.2897 56.5746 59.3714 53.8446 59.3638Z" fill="white"/>
<path d="M83.0839 101.953C82.7655 101.951 82.454 101.874 82.1856 101.729C81.9172 101.585 81.7027 101.379 81.5667 101.137C81.4307 100.894 81.379 100.624 81.4171 100.358C81.4553 100.091 81.5819 99.8395 81.7825 99.6311C87.5953 93.6516 91.1297 86.3319 91.9228 78.6309C92.716 70.9299 90.7309 63.2065 86.2275 56.4723C86.1166 56.3096 86.0447 56.1301 86.0161 55.9439C85.9874 55.7578 86.0026 55.5687 86.0606 55.3875C86.1187 55.2063 86.2185 55.0365 86.3544 54.8878C86.4903 54.7391 86.6598 54.6145 86.8529 54.5209C87.046 54.4274 87.259 54.3668 87.4799 54.3427C87.7007 54.3186 87.925 54.3314 88.1401 54.3804C88.3551 54.4293 88.5566 54.5134 88.733 54.628C88.9094 54.7425 89.0574 54.8852 89.1683 55.048C94.0074 62.2814 96.1416 70.578 95.2911 78.8508C94.4407 87.1237 90.6452 94.9873 84.4021 101.412C84.2447 101.579 84.0446 101.715 83.8163 101.809C83.5881 101.903 83.3378 101.952 83.0839 101.953Z" fill="black"/>
<path d="M65.8108 103.805C65.5654 103.803 65.3233 103.756 65.1015 103.667C64.8797 103.579 64.6834 103.451 64.5263 103.292C41.2364 79.7752 2.61702 75.9152 2.22829 75.8724C2.00634 75.8519 1.79145 75.7946 1.59574 75.704C1.40002 75.6134 1.22747 75.4912 1.08779 75.3444C0.805696 75.0479 0.674751 74.6691 0.724059 74.2913C0.773366 73.9135 0.998809 73.5678 1.35063 73.33C1.70246 73.0923 2.15203 72.9821 2.60028 73.0237C4.2904 73.1804 42.9603 77.0689 67.1122 101.511C67.3944 101.801 67.5297 102.173 67.4885 102.546C67.4474 102.92 67.2332 103.264 66.8925 103.505C66.5838 103.707 66.2016 103.813 65.8108 103.805Z" fill="black"/>
</g>
<defs>
<filter id="filter0_b_4_63" x="-3.28613" y="-3.07397" width="235.368" height="136.455" filterUnits="userSpaceOnUse" color-interpolation-filters="sRGB">
<feFlood flood-opacity="0" result="BackgroundImageFix"/>
<feGaussianBlur in="BackgroundImage" stdDeviation="2"/>
<feComposite in2="SourceAlpha" operator="in" result="effect1_backgroundBlur_4_63"/>
<feBlend mode="normal" in="SourceGraphic" in2="effect1_backgroundBlur_4_63" result="shape"/>
</filter>
</defs>
</svg>
