<svg width="159" height="123" viewBox="0 0 159 123" fill="none" xmlns="http://www.w3.org/2000/svg">
<g filter="url(#filter0_i_4_61)">
<path d="M2.60289 86.959C9.5324 95.2204 28.8336 72.7152 44.18 79.0252C59.5263 85.3352 58.2925 44.6549 44.18 51.6059C30.0674 58.5569 12.0676 34.4136 2.60289 43.0596C-6.86181 51.7056 13.2338 67.7869 2.60289 86.959Z" fill="#2796A5"/>
<path d="M134.737 49.4123C134.737 49.4123 115.571 7.30764 104.484 10.8116C99.8188 12.236 104.382 17.3923 99.616 18.489C92.1963 20.1983 87.633 -1.45232 75.8022 0.370886C66.5234 1.79527 74.4331 16.5803 66.9121 18.4463C62.2642 19.6 52.546 12.0508 49.8587 16.3667C45.9376 22.6197 61.5037 42.0056 61.5037 42.0056L134.737 49.4123Z" fill="#2796A5"/>
<path d="M82.9006 109.464C112.055 109.464 156.979 79.0537 156.827 69.0545C156.827 63.6561 151.232 57.4458 144.1 51.6343C127.824 38.3876 107.931 31.5221 87.6498 31.5221H65.3064C48.5573 31.5221 34.8842 46.3641 34.8842 64.6674C34.8842 93.1693 56.8557 109.464 82.9006 109.464Z" fill="#70C5E0"/>
<path d="M101.492 98.7956C101.492 98.7956 56.4162 114.293 61.7739 120.503C67.1316 126.713 108.692 121.871 101.492 98.7956Z" fill="#2796A5"/>
<path d="M118.714 74.1253C112.917 74.1253 108.185 69.1542 108.185 63.0436C108.185 56.933 112.917 51.962 118.714 51.962C124.511 51.962 129.244 56.933 129.244 63.0436C129.244 69.1542 124.461 74.1253 118.714 74.1253ZM118.714 54.8107C114.776 54.8107 111.565 58.4998 111.565 63.0436C111.565 67.5874 114.776 71.2765 118.714 71.2765C122.652 71.2765 125.864 67.5731 125.864 63.0436C125.864 58.5141 122.652 54.8107 118.714 54.8107Z" fill="white"/>
<path d="M97.1652 96.8299C96.878 96.8304 96.5954 96.7692 96.3441 96.6521C96.0927 96.5349 95.8809 96.3657 95.7286 96.1604C90.3259 88.6799 87.5103 80.0762 87.5991 71.3193C87.5621 64.7066 89.1324 58.1576 92.2132 52.0759C92.2939 51.8949 92.4175 51.7296 92.5765 51.5902C92.7354 51.4507 92.9264 51.34 93.1378 51.2647C93.3491 51.1895 93.5765 51.1514 93.8059 51.1526C94.0353 51.1538 94.2621 51.1943 94.4723 51.2718C94.6825 51.3492 94.8719 51.462 95.0287 51.6031C95.1856 51.7442 95.3067 51.9108 95.3847 52.0927C95.4627 52.2745 95.496 52.4678 95.4825 52.6608C95.469 52.8538 95.409 53.0426 95.3061 53.2154C92.4132 58.938 90.9407 65.099 90.9794 71.3193C90.8906 79.5366 93.5246 87.6119 98.585 94.6363C98.7037 94.7944 98.7844 94.9707 98.8223 95.155C98.8603 95.3393 98.8548 95.5281 98.8061 95.7106C98.7575 95.8932 98.6666 96.0658 98.5387 96.2188C98.4109 96.3717 98.2486 96.5019 98.061 96.602C97.7938 96.7475 97.4833 96.8265 97.1652 96.8299Z" fill="black"/>
<path d="M109.875 98.5819C109.552 98.5747 109.238 98.4961 108.962 98.3541C108.774 98.2528 108.611 98.121 108.483 97.9664C108.356 97.8118 108.266 97.6374 108.218 97.4533C108.171 97.2692 108.168 97.0789 108.209 96.8937C108.249 96.7085 108.333 96.5319 108.455 96.3742C113.852 89.3463 120.873 83.3066 129.099 78.6153C137.325 73.924 146.589 70.6773 156.337 69.0688C156.785 69.014 157.24 69.1115 157.603 69.3399C157.966 69.5683 158.207 69.9089 158.272 70.2866C158.337 70.6644 158.221 71.0485 157.95 71.3543C157.679 71.6602 157.275 71.8628 156.827 71.9176C147.58 73.5242 138.799 76.6507 130.987 81.1183C123.174 85.586 116.483 91.3072 111.295 97.9552C111.138 98.1505 110.926 98.3101 110.679 98.4194C110.431 98.5288 110.155 98.5846 109.875 98.5819Z" fill="black"/>
</g>
<defs>
<filter id="filter0_i_4_61" x="-0.0111084" y="0.261765" width="158.301" height="126.718" filterUnits="userSpaceOnUse" color-interpolation-filters="sRGB">
<feFlood flood-opacity="0" result="BackgroundImageFix"/>
<feBlend mode="normal" in="SourceGraphic" in2="BackgroundImageFix" result="shape"/>
<feColorMatrix in="SourceAlpha" type="matrix" values="0 0 0 0 0 0 0 0 0 0 0 0 0 0 0 0 0 0 127 0" result="hardAlpha"/>
<feOffset dy="4"/>
<feGaussianBlur stdDeviation="2"/>
<feComposite in2="hardAlpha" operator="arithmetic" k2="-1" k3="1"/>
<feColorMatrix type="matrix" values="0 0 0 0 0 0 0 0 0 0 0 0 0 0 0 0 0 0 0.25 0"/>
<feBlend mode="normal" in2="shape" result="effect1_innerShadow_4_61"/>
</filter>
</defs>
</svg>
