<svg width="900" height="600" viewBox="0 0 900 600" fill="none" xmlns="http://www.w3.org/2000/svg">
<path d="M449.5 517.609C589.504 517.609 703 510.845 703 502.5C703 494.155 589.504 487.391 449.5 487.391C309.496 487.391 196 494.155 196 502.5C196 510.845 309.496 517.609 449.5 517.609Z" fill="url(#paint0_linear_6_92)"/>
<path fill-rule="evenodd" clip-rule="evenodd" d="M290.982 101C270.321 101 253.419 117.84 253.419 138.426C253.419 159.012 270.321 175.852 290.982 175.852C295.127 175.852 298.522 179.234 298.522 183.364C298.522 187.494 295.127 190.876 290.982 190.876H271.327C261.248 190.876 253 199.094 253 209.136C253 219.178 261.248 227.396 271.327 227.396C280.044 227.396 287.177 234.503 287.177 243.188C287.177 259.035 300.19 272 316.095 272H485.848C506.51 272 523.412 255.16 523.412 234.574C523.412 213.988 506.51 197.148 485.848 197.148H482.215C478.07 197.148 474.675 193.77 474.675 189.636C474.675 185.506 478.066 182.124 482.215 182.124H506.673C516.752 182.124 525 173.906 525 163.864C525 153.834 516.773 145.625 506.711 145.604H487.03C478.313 145.604 471.18 138.497 471.18 129.812C471.18 113.965 458.167 101 442.263 101H290.982V101Z" fill="url(#paint1_linear_6_92)"/>
<path d="M550.84 84.454C550.331 84.2711 549.815 84.1053 549.295 83.957C549.123 83.907 548.952 83.855 548.78 83.811C548.41 83.7175 548.039 83.6285 547.667 83.544C547.489 83.504 547.311 83.471 547.13 83.437C546.757 83.3677 546.382 83.305 546.007 83.249C545.787 83.2183 545.567 83.1903 545.347 83.165C545.187 83.146 545.027 83.128 544.865 83.112C544.612 83.089 544.359 83.07 544.106 83.055C543.972 83.047 543.839 83.034 543.705 83.029C543.315 83.01 542.922 83 542.527 83H361.422C360.177 82.9964 358.934 83.0906 357.704 83.282C357.302 83.3442 356.901 83.4159 356.502 83.497C346.167 85.613 338.212 94.277 337.128 104.975C337.044 105.807 337.002 106.642 337.002 107.478V478.522C337.002 489.117 343.716 498.137 353.113 501.546C353.155 501.562 353.197 501.575 353.239 501.588C353.705 501.753 354.179 501.904 354.656 502.04C354.829 502.09 354.999 502.143 355.174 502.187C355.358 502.234 355.541 502.279 355.724 502.323C355.91 502.367 356.099 502.412 356.287 502.454C356.465 502.493 356.643 502.527 356.824 502.561C357.196 502.631 357.57 502.693 357.945 502.749C358.162 502.781 358.382 502.807 358.604 502.833C358.764 502.851 358.924 502.87 359.086 502.885C359.338 502.909 359.592 502.927 359.846 502.943C359.979 502.951 360.113 502.964 360.246 502.969C360.636 502.987 361.029 502.998 361.425 502.998H542.532C543.375 502.998 544.208 502.956 545.03 502.872C556.522 501.703 565.661 492.542 566.829 481.021C566.913 480.197 566.954 479.362 566.954 478.517V107.478C566.949 96.883 560.235 87.863 550.84 84.455V84.454Z" fill="white" stroke="#275DA0" stroke-width="4"/>
<path d="M451.975 483.058C459.751 483.058 466.054 476.755 466.054 468.98C466.054 461.205 459.751 454.901 451.975 454.901C444.2 454.901 437.897 461.205 437.897 468.98C437.897 476.755 444.2 483.058 451.975 483.058Z" fill="white" stroke="#275DA0" stroke-width="4"/>
<path d="M474.267 102.942H430.858C430.21 102.942 429.685 103.467 429.685 104.115C429.685 104.763 430.21 105.288 430.858 105.288H474.267C474.915 105.288 475.44 104.763 475.44 104.115C475.44 103.467 474.915 102.942 474.267 102.942Z" fill="white" stroke="#275DA0" stroke-width="2.346"/>
<path d="M530.524 120.54H374.6C363.554 120.54 354.6 129.494 354.6 140.54V411.438C354.6 422.484 363.554 431.438 374.6 431.438H530.524C541.57 431.438 550.524 422.484 550.524 411.438V140.54C550.524 129.494 541.57 120.54 530.524 120.54Z" fill="white" stroke="#275DA0" stroke-width="4"/>
<path fill-rule="evenodd" clip-rule="evenodd" d="M419 230.297V235.148C419.001 236.435 419.514 237.669 420.424 238.579C421.335 239.489 422.57 240 423.857 240H482.143C483.43 240 484.665 239.489 485.576 238.579C486.486 237.669 486.999 236.435 487 235.148V230.219C487 215.538 470.204 206 453 206C435.796 206 419 215.543 419 230.219M440.979 161.979C434.34 168.618 434.34 179.382 440.979 186.021C447.618 192.66 458.382 192.66 465.021 186.021C471.66 179.382 471.66 168.618 465.021 161.979C458.382 155.34 447.618 155.34 440.979 161.979V161.979Z" fill="#031C3C"/>
<path d="M523.5 266H382.5C375.596 266 370 271.596 370 278.5C370 285.404 375.596 291 382.5 291H523.5C530.404 291 536 285.404 536 278.5C536 271.596 530.404 266 523.5 266Z" fill="white" stroke="#275DA0" stroke-width="4"/>
<path d="M523.5 304H382.5C375.596 304 370 309.596 370 316.5C370 323.404 375.596 329 382.5 329H523.5C530.404 329 536 323.404 536 316.5C536 309.596 530.404 304 523.5 304Z" fill="white" stroke="#275DA0" stroke-width="4"/>
<path d="M523.5 342H382.5C375.596 342 370 347.596 370 354.5C370 361.404 375.596 367 382.5 367H523.5C530.404 367 536 361.404 536 354.5C536 347.596 530.404 342 523.5 342Z" fill="#031C3C" stroke="#031C3C" stroke-width="4"/>
<path fill-rule="evenodd" clip-rule="evenodd" d="M316.79 308.808H313.995C313.319 308.808 312.775 308.258 312.775 307.588V304.793C312.775 304.117 313.325 303.573 313.995 303.573H316.79C317.46 303.573 318.01 304.123 318.01 304.793V307.588C318.016 308.258 317.466 308.808 316.79 308.808ZM307.099 308.808H304.304C303.634 308.808 303.084 308.258 303.084 307.588V304.793C303.084 304.117 303.634 303.573 304.304 303.573H307.099C307.769 303.573 308.319 304.123 308.319 304.793V307.588C308.319 308.258 307.769 308.808 307.099 308.808ZM297.403 308.808H294.608C293.938 308.808 293.388 308.258 293.388 307.588V304.793C293.388 304.117 293.938 303.573 294.608 303.573H297.403C298.073 303.573 298.623 304.123 298.623 304.793V307.588C298.628 308.258 298.078 308.808 297.403 308.808ZM287.712 308.808H284.917C284.247 308.808 283.697 308.258 283.697 307.588V304.793C283.697 304.117 284.247 303.573 284.917 303.573H287.712C288.388 303.573 288.937 304.123 288.937 304.793V307.588C288.934 307.911 288.804 308.221 288.574 308.449C288.345 308.677 288.035 308.806 287.712 308.808ZM278.021 308.808H275.226C274.55 308.808 274 308.258 274 307.588V304.793C274 304.117 274.55 303.573 275.226 303.573H278.021C278.691 303.573 279.241 304.123 279.241 304.793V307.588C279.241 308.258 278.691 308.808 278.021 308.808ZM306.744 298.241H303.949C303.279 298.241 302.729 297.691 302.729 297.021V294.22C302.729 293.55 303.279 293 303.949 293H306.744C307.42 293 307.964 293.55 307.964 294.22V297.015C307.965 297.176 307.934 297.335 307.873 297.484C307.813 297.633 307.723 297.768 307.609 297.882C307.496 297.996 307.361 298.087 307.213 298.148C307.064 298.21 306.905 298.241 306.744 298.241V298.241ZM297.053 298.241H294.258C293.588 298.241 293.038 297.691 293.038 297.021V294.22C293.038 293.55 293.588 293 294.258 293H297.053C297.723 293 298.273 293.55 298.273 294.22V297.015C298.274 297.176 298.243 297.335 298.182 297.484C298.122 297.633 298.032 297.768 297.918 297.882C297.805 297.996 297.67 298.087 297.522 298.148C297.373 298.21 297.214 298.241 297.053 298.241ZM287.362 298.241H284.567C283.892 298.241 283.342 297.691 283.342 297.021V294.22C283.342 293.55 283.892 293 284.567 293H287.362C288.033 293 288.582 293.55 288.582 294.22V297.015C288.582 297.691 288.033 298.241 287.362 298.241ZM297.403 320.16H294.608C293.938 320.16 293.388 319.61 293.388 318.94V316.145C293.388 315.469 293.938 314.925 294.608 314.925H297.403C298.073 314.925 298.623 315.475 298.623 316.145V318.94C298.628 319.61 298.078 320.16 297.403 320.16ZM287.712 320.16H284.917C284.247 320.16 283.697 319.61 283.697 318.94V316.145C283.697 315.469 284.247 314.925 284.917 314.925H287.712C288.388 314.925 288.937 315.475 288.937 316.145V318.94C288.934 319.263 288.804 319.573 288.574 319.801C288.345 320.029 288.035 320.158 287.712 320.16V320.16Z" fill="#275DA0"/>
<path d="M600.588 114.893L623.79 91.6915C624.634 90.8468 624.634 89.4772 623.79 88.6325L623.789 88.6318C622.944 87.7871 621.575 87.7871 620.73 88.6318L597.528 111.833C596.684 112.678 596.684 114.048 597.528 114.892L597.529 114.893C598.374 115.738 599.743 115.738 600.588 114.893Z" fill="#275DA0"/>
<path d="M602.86 98.2808L609.552 91.5895C610.396 90.7448 610.396 89.3752 609.552 88.5305L609.551 88.5298C608.706 87.6851 607.337 87.6851 606.492 88.5298L599.801 95.2212C598.956 96.0659 598.956 97.4354 599.801 98.2801L599.801 98.2808C600.646 99.1255 602.015 99.1255 602.86 98.2808Z" fill="#275DA0"/>
<path d="M283.405 141.62L295.566 129.459C296.009 129.016 296.009 128.298 295.566 127.855C295.123 127.412 294.405 127.412 293.962 127.855L281.802 140.016C281.359 140.459 281.359 141.177 281.802 141.62C282.244 142.063 282.962 142.063 283.405 141.62Z" fill="#275DA0"/>
<path d="M284.596 132.913L288.103 129.406C288.546 128.963 288.546 128.245 288.103 127.802C287.66 127.359 286.942 127.359 286.499 127.802L282.992 131.309C282.549 131.752 282.549 132.47 282.992 132.913C283.435 133.356 284.153 133.356 284.596 132.913Z" fill="#275DA0"/>
<path d="M519 405C519 408.314 521.686 411 525 411C528.314 411 531 408.314 531 405C531 401.686 528.314 399 525 399C521.686 399 519 401.686 519 405Z" fill="#275DA0"/>
<path d="M296 147C296 150.314 298.686 153 302 153C305.314 153 308 150.314 308 147C308 143.686 305.314 141 302 141C298.686 141 296 143.686 296 147Z" fill="#275DA0"/>
<path d="M239.298 387.776C241.922 387.073 243.48 384.376 242.776 381.752C242.073 379.128 239.376 377.57 236.752 378.274C234.128 378.977 232.57 381.674 233.274 384.298C233.977 386.922 236.674 388.48 239.298 387.776Z" fill="#275DA0"/>
<path d="M510.318 208.898C510.923 213.57 512.541 219.202 515.161 221.115C518.133 223.286 519.051 225.591 519.051 225.591L522.071 224.661L525.681 223.548C525.681 223.548 525.686 223.179 525.664 222.566C525.637 221.757 525.572 220.95 525.47 220.147C525.47 220.147 524.782 218.667 525.747 217.229C526.711 215.794 527.154 213.331 526.475 211.61C525.8 209.895 525.659 206.009 525.02 205.978C523.472 205.892 524.533 211.428 523.678 212.208C522.909 212.92 522.251 212.464 522.134 212.366L522.11 212.347C518.361 209.546 515.588 198.482 513.038 199.302C512.088 199.606 510.057 206.909 510.318 208.898V208.898ZM662.726 323.866C662.726 323.866 659.526 329.405 660.959 332.6C662.389 335.797 667.35 340.057 668.63 341.729C669.905 343.398 674.233 347.807 675.977 344.97C677.72 342.139 674.642 334.611 672.508 331.774C670.377 328.93 670.174 324.052 670.174 324.052L662.726 323.866Z" fill="#F8AE9D"/>
<path d="M660.678 331.678C660.678 331.678 660.922 337.781 661.212 339.41C661.504 341.043 661.792 340.544 662.908 339.448C664.024 338.352 664.011 335.158 664.429 334.948C664.848 334.737 660.678 331.678 660.678 331.678V331.678Z" fill="#F8AE9D"/>
<path d="M604.692 208.23C604.692 208.23 567.357 248.474 555.734 254.78L526.451 220.215C526.451 220.215 520.954 220.6 517.513 225.236C517.513 225.236 528.874 273.986 549.603 280.737C570.332 287.489 612.592 240.022 612.592 240.022L604.692 208.23V208.23ZM569.882 503.225H608.221C610.063 501.054 609.384 493.037 609.108 490.416C609.05 489.887 609.011 489.583 609.011 489.583C609.011 489.583 595.919 479.474 594.121 487.215C594.067 487.456 594.002 487.695 593.927 487.931C591.664 495.171 581.5 498.461 575.635 499.378C571.816 499.973 570.405 501.887 569.882 503.225V503.225Z" fill="#275DA0"/>
<path d="M595.694 503.225H634.033C635.875 501.054 635.196 493.037 634.92 490.416C634.862 489.887 634.823 489.583 634.823 489.583C634.823 489.583 621.731 479.474 619.933 487.215C619.879 487.456 619.814 487.695 619.739 487.931C617.476 495.171 607.312 498.461 601.447 499.378C597.628 499.973 596.217 501.887 595.694 503.225V503.225Z" fill="#275DA0"/>
<path d="M580.355 330.843C580.355 330.843 582.188 350.681 584.342 374.525C587.27 406.916 590.792 446.705 591.141 454.242C591.745 467.331 594.158 488.266 594.158 488.266C594.158 488.266 599.889 493.24 611.359 491.143C611.359 491.143 621.583 461.256 624.502 429.631L624.636 428.069C627.353 395.879 631.573 328.09 631.573 328.09L580.355 330.843V330.843Z" fill="#031C3C"/>
<path d="M590.752 332.201C590.752 332.201 594.209 351.842 598.314 375.451C603.893 407.525 610.67 446.927 611.63 454.41C613.294 467.404 617.431 488.103 617.431 488.103C617.431 488.103 623.664 492.717 635.173 489.952C635.173 489.952 643.184 459.596 643.62 427.941L643.631 426.378C643.816 394.172 642.675 326.439 642.675 326.439L590.752 332.201V332.201Z" fill="#031C3C"/>
<path d="M596.691 215.477C609.864 219.637 631.604 207.909 631.604 207.909C631.604 207.909 620.515 199.293 621.149 180.335L610.964 188.546L604.044 194.12C604.044 194.12 604.071 197.409 604.828 203.17C605.029 204.684 605.394 207.052 604.258 208.265C599.847 212.973 596.691 215.477 596.691 215.477Z" fill="#F8AE9D"/>
<path d="M600.016 193.811C600.016 193.811 621.779 197.428 623.822 183.839C625.866 170.25 630.049 161.565 616.241 158.682C602.433 155.8 598.944 160.575 597.16 164.945C595.377 169.315 594.41 192.52 600.016 193.811V193.811Z" fill="#F8AE9D"/>
<path d="M578.299 337.873C578.696 338.201 579.157 338.402 579.686 338.402C584.635 338.334 599.063 341.084 611.27 339.83C621.561 338.84 630.675 335.793 640.455 331.409C641.755 330.825 644.743 329.229 644.679 327.778C644.633 326.186 644.478 323.883 644.277 320.977C643.584 310.878 642.38 293.512 643.557 273.473C643.766 269.742 643.88 266.043 643.894 262.398C643.994 235.239 638.612 211.354 627.787 203.271C626.861 202.61 621.187 205.383 615.973 207.952C611.156 210.328 607.379 210.579 602.827 209.658L597.239 213.69C591.696 218.835 585.625 225.833 582.984 236.452C580.74 245.493 579.421 261.791 578.696 278.683C578.368 286.337 578.103 294.06 578.035 301.381V301.641C577.971 302.366 577.971 303.16 577.971 303.885C577.706 322.697 577.971 337.608 578.299 337.873V337.873Z" fill="#275DA0"/>
<path d="M665.989 326.687C661.858 327.248 657.45 326.669 657.45 326.669C657.45 326.669 647.489 288.507 646.124 284.997C644.76 281.486 612.647 238.992 612.647 238.992L629.078 203.896C629.078 203.896 662.748 268.307 666.026 277.274C671.443 292.09 671.742 324.626 671.742 324.626C671.742 324.626 669.235 326.249 665.989 326.687ZM626.271 178.971C625.086 181.421 621.649 181.783 621.966 179.081C622.326 176.006 622.322 171.983 619.822 172.731C617.322 173.479 617.195 175.482 616.168 174.314C615.142 173.146 615.124 168.22 607.679 167.873C600.235 167.531 597.211 170.122 593.753 168.598C591.681 167.687 590.783 165.444 590.397 163.791C590.288 163.323 590.628 162.669 590.941 163.034C591.237 163.379 591.98 163.358 591.768 162.956C590.457 160.468 588.496 155.037 593.493 150.991C600.18 145.576 606.995 149.121 610.863 149.353C619.389 149.869 624.895 150.38 627.677 155.981C629.984 160.628 629.588 172.108 626.271 178.971Z" fill="#275DA0"/>
<path d="M240.559 445.061C235.017 450.701 224.653 449.512 224.653 449.512C224.653 449.512 223.282 439.177 228.829 433.54C234.371 427.899 244.73 429.085 244.73 429.085C244.73 429.085 246.101 439.42 240.559 445.061V445.061Z" fill="url(#paint2_linear_6_92)"/>
<path d="M668.5 468C672.09 468 675 465.09 675 461.5C675 457.91 672.09 455 668.5 455C664.91 455 662 457.91 662 461.5C662 465.09 664.91 468 668.5 468Z" fill="#275DA0"/>
<path d="M367.521 268.912L352.014 264.661L364.031 273.543C355.998 284.126 347.649 295.56 346.887 309.049C346.621 313.452 346.088 317.627 345.2 321.523L326.889 325.495L322.117 326.522L328.234 327.03L343.309 328.299C342.256 331.408 341.012 334.327 339.565 337.029C332.802 349.744 320.937 386.671 308.006 388.74H307.994C307.6 387.953 289.086 351.546 306.179 295.864C308.388 288.71 311.33 281.804 314.96 275.256C315.074 275.041 315.189 274.838 315.303 274.635C336.063 237.556 373.7 219.574 378.852 238.482C381.682 248.837 375.312 258.57 367.521 268.912V268.912Z" fill="#031C3C"/>
<path d="M339.566 337.055C329.376 369.794 320.937 386.697 308.007 388.765H307.994C307.474 388.765 279.15 388.359 303.794 299.38C305.862 291.931 311.306 281.83 314.96 275.282C315.075 275.066 315.189 274.863 315.303 274.66C314.186 284.038 313.679 298.009 317.79 310.661C317.79 310.661 320.62 317.779 326.889 325.52L322.117 326.548L328.234 327.056C331.267 330.545 335.023 334.098 339.566 337.055V337.055Z" fill="#031C3C"/>
<path d="M307.803 431.517C306.902 304.291 352.077 243.368 376.023 233.851" stroke="#031C3C" stroke-width="2.5" stroke-miterlimit="10"/>
<path d="M307.702 310.876L299.187 318.553L307.905 315.914C308.565 342.613 303.743 367.992 290.787 370.327C273.605 373.461 263.986 327.626 263.39 295.344L275.673 298.542L263.504 290.496C263.567 288.492 263.682 282.667 263.834 280.89C265.534 261.907 271.917 242.542 283.376 230.487C290.507 242.276 296.598 255.867 300.913 269.318C304.529 280.561 306.966 295.712 307.702 310.876V310.876Z" fill="#031C3C"/>
<path d="M263.821 280.89L300.913 269.318C296.611 255.867 290.495 242.289 283.376 230.487C271.93 242.542 265.522 261.907 263.821 280.89Z" fill="#031C3C"/>
<path d="M285.47 236.972C290.546 290.535 292.69 392.432 289.607 429.207" stroke="#031C3C" stroke-width="2.5" stroke-miterlimit="10"/>
<path d="M273.909 388.866C264.113 392.876 247.654 371.57 234.99 343.653C234.257 342.014 233.538 340.369 232.833 338.717C231.454 335.474 230.151 332.199 228.925 328.895L236.83 327.614L226.539 322.208C220.994 305.724 217.352 288.618 217.377 274L255.281 281.588C264.291 296.359 271.638 316.904 275.99 336.103L272.095 347.333L277.551 343.577C281.878 366.38 281.472 385.783 273.909 388.866V388.866Z" fill="#031C3C"/>
<path d="M228.582 282.451C256.398 340.709 284.175 405.363 281.929 432.886" stroke="#031C3C" stroke-width="2.5" stroke-miterlimit="10"/>
<path d="M280.3 319.254C280.3 319.254 269.059 313.812 263.183 300.105L240.773 297.219L261.391 294.921C260.156 290.52 259.475 285.487 259.76 279.678C259.793 279.02 259.788 278.382 259.821 277.725C254.006 277.835 246.49 277.764 245.779 277.739L259.847 270.528C258.477 233.899 238.381 211.452 227.542 238.196C225.33 243.683 222.523 249.792 219.987 257.111L225.553 273.177L217.4 264.885C216.673 267.27 216.556 267.913 216.425 269.416C215.283 282.497 221.861 295.047 232.842 302.297C246.606 311.34 267.682 323.056 280.3 319.254V319.254Z" fill="#031C3C"/>
<path d="M267.073 489.877L271.673 418.39H314.845L319.817 489.809C320.347 497.524 314.232 504.08 306.496 504.08H280.393C272.678 504.08 266.576 497.569 267.073 489.877Z" fill="white" stroke="#275DA0" stroke-width="4"/>
<path d="M264.717 420.723V412.059H322.236V420.723H264.717Z" fill="#275DA0" stroke="#275DA0" stroke-width="4"/>
<defs>
<linearGradient id="paint0_linear_6_92" x1="460.31" y1="534.551" x2="460.255" y2="454.507" gradientUnits="userSpaceOnUse">
<stop stop-color="white"/>
<stop offset="1" stop-color="#EEEEEE"/>
</linearGradient>
<linearGradient id="paint1_linear_6_92" x1="394.8" y1="367.872" x2="391.484" y2="-85.056" gradientUnits="userSpaceOnUse">
<stop stop-color="white"/>
<stop offset="1" stop-color="#EEEEEE"/>
</linearGradient>
<linearGradient id="paint2_linear_6_92" x1="218.447" y1="464.328" x2="258.514" y2="401.52" gradientUnits="userSpaceOnUse">
<stop stop-color="white"/>
<stop offset="1" stop-color="#EEEEEE"/>
</linearGradient>
</defs>
</svg>
