<svg width="900" height="600" viewBox="0 0 900 600" fill="none" xmlns="http://www.w3.org/2000/svg">
<path d="M111 543.636H789" stroke="#E1E4E5" stroke-width="4"/>
<path d="M222.148 541.402H551.843C564.434 541.402 574.645 533.232 574.645 523.156V512.308C574.645 502.228 564.434 494.062 551.843 494.062H222.153C237.236 507.253 237.493 527.417 222.761 540.855L222.148 541.402V541.402Z" fill="#031C3C"/>
<path d="M227.24 499.48H410.102C422.694 499.48 432.905 507.65 432.905 517.73C432.905 527.805 422.699 535.975 410.102 535.975H227.224C235.773 524.783 235.752 510.644 227.24 499.48V499.48Z" fill="url(#paint0_linear_5_2)"/>
<path d="M296.817 461.177C296.34 460.485 297.069 459.68 298.175 459.68H472.625C486.298 459.68 497.384 467.376 497.384 476.873C497.384 486.366 486.298 494.067 472.625 494.067H298.128C297.016 494.067 296.282 493.257 296.77 492.561C303.677 482.623 303.656 471.07 296.817 461.177Z" fill="#275DA0"/>
<path d="M297.919 462.88H384.378C400.426 462.88 413.437 469.33 413.437 477.285C413.437 485.241 400.426 491.691 384.378 491.691H297.352C303.299 482.525 303.462 472.086 297.919 462.88Z" fill="url(#paint1_linear_5_2)"/>
<path d="M323.308 458.437H424.808C433.808 458.437 441.108 451.757 441.108 443.514C441.108 435.271 433.813 428.591 424.808 428.591H323.303C331.059 436.866 331.363 449.001 324.026 457.592L323.308 458.437Z" fill="url(#paint2_linear_5_2)"/>
<path d="M441.098 443.514C441.098 435.271 433.629 428.59 424.415 428.59H321.373C320.89 428.59 320.502 428.238 320.508 427.809C320.513 427.384 320.896 427.044 321.373 427.044H484.836C495.005 427.044 503.249 434.417 503.249 443.518C503.249 452.614 495.005 459.991 484.836 459.991H321.373C320.901 459.991 320.513 459.647 320.508 459.226C320.502 458.797 320.89 458.445 321.373 458.445H424.415C433.629 458.437 441.098 451.756 441.098 443.514V443.514Z" fill="#031C3C"/>
<path d="M262.525 395.033H522.25C530.315 395.033 536.855 400.079 536.855 406.302V415.779C536.855 422.003 530.315 427.049 522.25 427.049H262.525L262.662 426.939C273.775 418.013 273.717 403.899 262.525 395.033V395.033Z" fill="#275DA0"/>
<path d="M267.125 399.772H405.97C414.036 399.772 420.576 404.818 420.576 411.041C420.576 417.265 414.036 422.311 405.97 422.311H267.13C272.233 415.33 272.228 406.744 267.125 399.772Z" fill="url(#paint3_linear_5_2)"/>
<path d="M279.433 412.923C270.79 410.003 263.3 403.784 258.926 395.807C257.69 393.607 256.681 391.079 257.013 388.578C257.098 388.068 257.227 387.465 257.686 387.227C258.098 386.99 258.655 387.12 259.119 387.252C273.555 391.147 288.817 397.71 303.969 397.018C304.662 397.007 305.355 396.95 305.96 397.219C306.704 397.531 307.177 398.217 307.511 398.952C308.657 401.338 309.65 405.853 309.275 408.54C308.815 411.737 305.725 412.2 303.008 412.888C295.272 414.855 287.146 415.533 279.433 412.923V412.923Z" fill="#F8AE9D"/>
<path d="M278.099 395.007C276.936 394.516 275.726 394.026 274.478 393.999C273.229 393.971 271.853 394.639 271.455 395.847C271.19 396.683 271.435 397.558 271.77 398.339C272.679 400.359 274.276 401.999 275.962 403.452C282.424 408.901 290.703 412.196 299.17 412.715C302.918 412.935 306.842 412.598 310.143 410.838C308.495 408.829 308.821 405.958 308.644 403.418C308.115 395.984 301.778 398.807 296.693 398.792C290.312 398.658 283.96 397.414 278.099 395.007V395.007Z" fill="#F8AE9D"/>
<path d="M471.508 340.018L471.798 340.845C473.829 346.732 475.401 352.81 476.05 359.04C477.241 370.486 474.994 383.88 466.384 392.193C454.903 403.277 436.485 404.99 421.513 402.351C415.385 401.28 409.615 398.716 404.712 394.886C399.833 399.306 394.591 404.147 390.228 409.067C381.464 406.001 373.122 401.841 365.401 396.685C347.13 405.053 328.494 410.698 308.817 414.787C306.568 409.192 304.989 403.351 304.115 397.385C303.962 396.417 316.225 388.141 317.64 386.964C321.885 383.386 330.728 375.208 330.728 375.208C330.728 375.208 319.582 365.716 314.707 361.26C309.549 356.628 304.601 351.768 299.878 346.693C295.978 342.499 292.166 338.073 289.775 332.84C287.385 327.652 286.506 321.518 288.504 316.125C294.813 299.341 320.281 305.241 332.111 311.025C341.891 315.823 350.457 322.811 358.7 329.897C362.025 332.713 365.305 335.622 368.538 338.485C371.087 335.857 373.901 332.44 376.309 329.676C378.899 326.678 381.861 323.86 385.44 322.095C389.201 320.189 392.672 320.46 396.685 319.89C398.484 319.632 400.233 319.097 401.985 318.793C407.24 317.835 412.803 318.859 417.42 321.563C421.805 324.131 425.364 327.174 430.51 328.159C436.352 329.273 443.137 328.615 448.996 327.832C454.255 327.105 459.599 325.915 464.838 326.945C467.017 327.374 467.849 330.412 468.569 332.158C469.532 334.686 470.543 337.305 471.508 340.018V340.018ZM425.088 146.429C425.088 146.429 439.232 144.18 443.031 169.149C447.251 196.908 458.521 192.341 476.418 214.881C486.877 228.052 475.87 251.311 453.502 250.85C431.134 250.4 410.933 243.933 398.066 246.7C385.2 249.467 384.493 216.512 397.188 206.344C409.884 196.177 382.816 166.978 399.31 153.976C415.804 140.974 425.088 146.429 425.088 146.429V146.429Z" fill="#031C3C"/>
<path d="M509.634 256.533C510.924 253.882 510.846 250.803 510.381 247.929C508.364 235.595 499.721 225.288 489.813 217.735C479.873 210.163 468.495 204.757 458.037 197.971C455.323 196.204 452.602 194.3 449.486 193.345C446.37 192.39 442.748 192.493 440.175 194.502C438.358 195.913 437.308 198.093 436.697 200.274C435.358 205.048 435.871 210.104 436.688 214.947C437.709 221.056 439.208 227.102 441.67 232.716C443.643 237.246 446.855 241.906 451.683 242.794C453.08 248.206 455.955 253.279 459.989 257.161C464.603 261.611 470.453 264.521 476.523 266.553C482.117 268.43 488.234 269.655 493.861 267.904C497.2 266.884 500.141 264.92 503.018 262.918C505.584 261.212 508.248 259.345 509.634 256.533V256.533ZM459.083 248.308L455.781 243.066C456.485 243.139 457.15 243.275 457.82 243.548C459.633 244.333 460.725 247.188 459.083 248.308V248.308Z" fill="#031C3C"/>
<path d="M397.896 168.387C397.725 169.314 397.694 170.286 397.757 171.394C398.131 177.868 399.523 184.243 401.881 190.284C403.322 193.868 405.086 197.401 407.581 200.368C408.617 201.6 409.79 202.738 411.322 203.177C412.9 203.615 414.889 203.677 416.455 203.284C417.836 208.995 417.26 219.774 412.329 223.825C410.822 225.05 409.031 225.816 407.238 226.491C403.745 227.838 400.109 228.864 396.469 229.659C392.323 230.554 387.803 231.224 384.89 234.273C384.526 234.648 384.164 235.162 384.311 235.668C384.408 235.99 384.643 236.218 384.923 236.399C387.216 238.259 390.051 239.279 392.886 240.253C397.858 241.934 402.964 243.336 408.156 244.274C413.579 245.255 419.179 245.725 424.671 245.133C428.917 244.652 433.107 243.571 436.961 241.664C440.999 239.661 445.134 238.027 449.312 236.114C452.847 234.489 456.332 232.633 460.158 231.974C458.35 228.534 454.576 226.604 450.818 225.69C447.06 224.823 443.13 224.744 439.328 224.016C438.076 223.757 436.823 223.453 435.748 222.683C432.804 220.555 433.61 215.828 433.563 212.731L433.414 202.934C433.852 198.258 435.78 194.346 437.472 190.067C440.053 183.51 440.587 176.06 438.313 169.345C436.039 162.677 430.866 156.885 424.22 154.535C417.574 152.186 409.597 153.509 404.493 158.395C401.259 161.541 398.621 164.355 397.896 168.387V168.387Z" fill="#F8AE9D"/>
<path d="M418.335 147.554C411.711 146.814 405.675 150.058 401.199 155.086C397.434 159.301 395.221 164.865 395.333 170.455C395.349 171.254 395.439 172.124 395.889 172.841C397.085 174.56 399.687 173.927 401.633 173.162C404.804 171.936 407.165 170.146 410.04 168.636C412.915 167.126 416.406 167.347 418.979 165.262C421.408 163.253 429.748 159.019 429.973 155.746C430.257 151.746 422.929 148.479 419.865 147.813C419.426 147.677 418.917 147.615 418.335 147.554V147.554Z" fill="#031C3C"/>
<path d="M437.418 156.609C443.019 160.221 445.648 166.549 445.939 173.274C446.194 178.92 444.394 184.631 440.775 188.893C440.258 189.502 439.639 190.119 438.836 190.391C436.823 190.967 435.206 188.833 434.181 187.01C432.498 184.057 431.799 181.177 430.525 178.19C429.251 175.203 426.406 173.169 425.729 169.927C425.116 166.835 421.327 158.283 423.22 155.604C425.528 152.325 433.272 154.423 436.067 155.843C436.493 156.014 436.928 156.288 437.418 156.609V156.609Z" fill="#031C3C"/>
<path d="M387.596 232.845C386.712 232.442 385.653 232.736 385.064 233.531C378.456 242.784 375.904 254.379 373.67 265.554C371.136 278.258 368.88 291.005 366.716 303.75C366.587 304.399 366.505 305.094 366.791 305.69C367.078 306.287 367.73 306.601 368.335 306.869C372.153 308.706 376.017 310.497 379.836 312.334C383.957 302.959 386.927 293.12 388.682 283.031C391.134 289.234 395.561 294.621 401.208 298.141C397 304.168 391.821 316.22 386.771 321.52C385.998 322.364 381.216 321.05 380.148 320.696C379.483 322.602 382.596 320.566 382.579 322.508C385.451 322.927 389.123 321.207 392.076 320.838C395.637 320.422 399.234 320.399 402.8 320.768C408.727 321.418 414.487 323.272 419.753 326.058C422.371 327.451 424.882 329.035 427.267 330.797C429.325 332.338 434.418 335.959 434.418 335.959C434.792 336.23 436.543 335.834 436.958 335.735C438.166 335.53 439.382 335.373 440.602 335.264C443.666 335.026 446.716 334.625 449.737 334.062C455.776 332.953 461.713 331.245 467.409 328.893C467.958 328.469 466.001 324.431 465.897 323.646C466 324.384 477.219 323.474 478.326 323.273C482.75 322.373 487.227 321.889 491.65 320.944C489.669 303.13 484.23 285.924 478.886 268.856C476.796 262.138 474.66 255.422 471.698 249.087C468.545 242.34 464.473 236.022 459.58 230.411C459.44 230.274 459.207 230.185 459.023 230.234C456.674 230.825 442.354 234.509 435.229 237.16C431.598 238.556 427.919 239.814 424.194 241.072C422.722 241.557 421.204 242.042 419.678 242.019C418.661 241.988 417.641 241.773 416.666 241.556C406.74 239.349 396.812 236.958 387.596 232.845V232.845Z" fill="#275DA0"/>
<path d="M452.203 268.336C452.612 270.872 453.159 273.453 453.706 275.987C455.038 281.737 456.745 287.394 458.817 292.921C459.876 295.678 460.981 298.389 462.224 301.097C462.845 302.428 463.466 303.76 464.133 305.09C464.467 305.732 464.801 306.42 465.134 307.063C465.42 307.613 465.751 308.116 466.036 308.621C464.047 308.558 454.233 309.124 452.201 309.294" stroke="white" stroke-width="1.376" stroke-miterlimit="10" stroke-linecap="round"/>
<path d="M451.884 311.286C452.088 312.577 452.339 313.867 452.636 315.157L453.527 319.027C453.821 320.132 454.489 321.508 454.507 322.664C454.503 322.433 446.634 321.766 445.894 321.685C437.699 320.885 429.464 320.409 421.274 319.886C415.953 319.551 410.731 319.677 405.415 319.711C403.844 319.735 401.993 319.578 401.141 318.297C400.431 317.198 401.011 315.803 400.441 314.794C400.072 314.892 395.79 315.974 395.835 315.881C395.664 316.855 395.326 318.894 394.316 319.371C393.962 319.505 393.587 319.574 393.209 319.573C392.655 319.581 392.099 319.497 391.543 319.413C391.457 319.413 391.374 319.382 391.31 319.325C391.217 319.233 391.307 319.093 391.397 318.953C392.657 317.09 393.318 314.887 393.289 312.638C394.616 311.739 395.941 310.702 397.079 309.576C397.99 308.637 398.665 307.425 399.669 306.624C400.719 305.73 401.744 306.269 402.904 306.575C404.25 306.878 405.596 307.227 406.896 307.624C409.45 308.417 412.008 309.395 414.158 310.98C414.906 311.524 415.609 312.114 416.491 312.378C417.327 312.642 418.251 312.628 419.129 312.615C424.536 312.487 429.94 312.22 435.294 311.63C440.786 311.038 444.531 311.12 451.726 310.04C451.727 310.086 451.733 310.502 451.884 311.286V311.286Z" fill="#F8AE9D"/>
<path d="M392.343 267.823C391.051 273.41 390.119 279.053 389.488 284.81" stroke="white" stroke-width="1.376" stroke-miterlimit="10" stroke-linecap="round"/>
<path d="M283.332 258.605L299.199 329.368L419.684 327.538C419.621 323.378 416.195 320.01 411.99 320.074L383.197 320.511L368.849 255.411C368.4 253.291 366.482 251.795 364.357 251.827L287.731 252.991C284.82 253.082 282.688 255.749 283.332 258.605V258.605Z" fill="#031C3C"/>
<path d="M440.725 431.506C440.167 428.278 438.591 424.974 437.114 422.084C431.018 410.25 420.12 401.91 408.384 396.171C407.173 395.589 405.962 395.006 404.708 394.563C404.802 394.7 404.897 394.837 404.992 395.021L404.993 395.067L405.039 395.066C404.899 394.976 404.805 394.885 404.665 394.795C399.922 399.073 394.863 403.773 390.543 408.507C393.398 410.822 397.541 412.7 399.598 414.241C404.46 417.819 409.14 421.631 414.184 424.975C420.956 429.541 428.171 432.852 436.237 434.301C439.342 434.855 440.969 435.431 440.933 433.028C440.881 432.659 440.827 432.151 440.725 431.506V431.506Z" fill="#F8AE9D"/>
<path d="M432.861 422.195C429.72 416.279 424.844 411.777 419.514 407.79C415.773 404.981 411.805 402.452 408.022 399.875C406.947 399.151 404.838 397.196 403.02 396.253C399.236 399.685 395.361 403.303 391.859 407.054C403.43 414.09 413.739 423.271 426.435 428.255C427.597 428.7 428.806 429.144 430.055 429.171C431.303 429.199 432.636 428.67 433.36 427.642C434.491 426.053 433.765 423.891 432.861 422.195Z" fill="#F8AE9D"/>
<path d="M629.22 483.955C629.722 483.955 630.204 483.758 630.563 483.406C630.921 483.054 631.126 482.575 631.134 482.073C631.501 462.066 615.467 453.403 614.781 453.036C614.328 452.799 613.8 452.752 613.313 452.904C612.825 453.057 612.418 453.397 612.181 453.849C611.945 454.3 611.896 454.826 612.046 455.313C612.195 455.8 612.53 456.208 612.978 456.45C613.01 456.466 616.728 458.46 620.317 462.624C625.072 468.129 627.417 474.654 627.273 482.009C627.265 482.518 627.459 483.01 627.811 483.377C628.164 483.744 628.647 483.958 629.156 483.971C629.188 483.955 629.204 483.955 629.22 483.955V483.955ZM635.41 434.289C635.41 434.289 657.73 392.185 577.655 362.67C573.522 361.154 569.342 364.792 570.331 369.083C575.389 391.005 591.966 442.25 635.41 434.289Z" fill="#275DA0"/>
<path d="M657.379 480.142C657.475 480.142 657.57 480.142 657.65 480.126C657.9 480.089 658.141 480.004 658.359 479.874C658.576 479.744 658.766 479.573 658.917 479.37C659.068 479.167 659.178 478.936 659.24 478.691C659.302 478.446 659.315 478.19 659.278 477.94C653.725 439.634 625.183 421.829 621.96 419.914C621.051 419.372 619.854 419.659 619.312 420.568C618.769 421.478 619.056 422.658 619.966 423.201L620.014 423.217C621.37 424.014 628.485 428.418 636.144 437.001C646.705 448.871 653.215 462.816 655.48 478.467C655.624 479.456 656.438 480.142 657.379 480.142Z" fill="#275DA0"/>
<path d="M645.622 480.142H645.718C646.227 480.116 646.705 479.89 647.048 479.514C647.391 479.137 647.573 478.641 647.553 478.132C646.787 461.747 657.189 446.797 657.285 446.638C657.576 446.22 657.691 445.704 657.604 445.202C657.518 444.7 657.237 444.253 656.822 443.957C656.404 443.666 655.889 443.552 655.387 443.638C654.885 443.725 654.438 444.006 654.142 444.42C653.679 445.074 642.878 460.614 643.708 478.307C643.728 478.801 643.939 479.268 644.296 479.61C644.653 479.952 645.128 480.142 645.622 480.142V480.142ZM640.101 482.966H640.149C640.402 482.96 640.651 482.904 640.882 482.801C641.113 482.698 641.321 482.55 641.495 482.366C641.669 482.182 641.804 481.966 641.893 481.729C641.983 481.493 642.025 481.241 642.016 480.988L640.372 418.654C640.366 418.401 640.31 418.152 640.207 417.921C640.104 417.69 639.956 417.482 639.772 417.308C639.588 417.134 639.372 416.999 639.135 416.91C638.899 416.82 638.647 416.778 638.394 416.787C638.141 416.793 637.892 416.849 637.661 416.952C637.43 417.055 637.222 417.203 637.048 417.387C636.874 417.571 636.739 417.787 636.65 418.024C636.56 418.26 636.518 418.512 636.527 418.765L638.171 481.083C638.185 481.586 638.395 482.064 638.755 482.415C639.115 482.767 639.598 482.964 640.101 482.966V482.966Z" fill="#275DA0"/>
<path d="M653.471 447.707C653.471 447.707 698.893 462.146 713.619 378.066C714.385 373.726 710.045 370.28 705.993 372.019C685.332 380.906 637.867 406.385 653.471 447.707V447.707ZM624.051 463.885C624.051 463.885 583.223 488.47 549.384 410.102C547.645 406.066 551.059 401.694 555.399 402.444C577.559 406.305 629.635 420.074 624.051 463.885Z" fill="#275DA0"/>
<path d="M631.533 440.208C634.692 446.75 644.233 446.032 646.403 439.091C656.087 408.172 672.313 342.631 638.713 335.1C601.028 326.661 613.648 403.226 631.533 440.208Z" fill="#275DA0"/>
<path d="M639.288 444.404H639.336C639.91 444.388 640.357 443.894 640.341 443.319L636.799 355.681C636.794 355.544 636.763 355.408 636.706 355.283C636.649 355.158 636.567 355.045 636.466 354.952C636.365 354.859 636.247 354.786 636.118 354.739C635.989 354.691 635.851 354.67 635.714 354.676C635.14 354.692 634.693 355.187 634.709 355.761L638.235 443.399C638.245 443.671 638.36 443.928 638.557 444.116C638.754 444.304 639.016 444.407 639.288 444.404V444.404ZM622.919 464.012C623.222 464.012 623.525 463.884 623.732 463.629C624.099 463.182 624.036 462.512 623.589 462.161L575.055 422.435C574.609 422.068 573.939 422.132 573.588 422.578C573.221 423.025 573.284 423.695 573.731 424.046L622.265 463.773C622.456 463.932 622.695 464.012 622.919 464.012V464.012Z" fill="#031C3C"/>
<path d="M602.221 476.026C595.69 476.026 590.829 482.057 592.215 488.438L593.109 492.475L594.975 501.042L595.853 505.095L596.159 506.494C600.572 526.682 618.448 541.072 639.113 541.072C659.778 541.072 677.654 526.682 682.068 506.494L682.374 505.095L683.251 501.042L685.118 492.475L685.995 488.438C687.389 482.06 682.531 476.026 676.002 476.026H602.221V476.026Z" fill="white" stroke="#E1E4E5" stroke-width="4" stroke-linecap="round" stroke-linejoin="round"/>
<path d="M237.286 313.626C224.426 316.672 210.824 305.765 210.824 305.765C210.824 305.765 218.082 289.925 230.947 286.888C243.808 283.841 257.406 294.738 257.406 294.738C257.406 294.738 250.147 310.579 237.286 313.626Z" fill="url(#paint4_linear_5_2)"/>
<path d="M229.373 141.883C248.933 155.356 278.816 145.938 278.816 145.938C278.816 145.938 276.965 114.68 257.392 101.221C237.832 87.748 207.963 97.153 207.963 97.153C207.963 97.153 209.814 128.411 229.373 141.883Z" fill="url(#paint5_linear_5_2)"/>
<path d="M624.495 189.788C612.812 201.68 590.964 199.172 590.964 199.172C590.964 199.172 588.072 177.385 599.767 165.501C611.45 153.609 633.288 156.109 633.288 156.109C633.288 156.109 636.179 177.897 624.495 189.788V189.788Z" fill="url(#paint6_linear_5_2)"/>
<path d="M726.792 443.38C721.248 443.38 716.754 447.874 716.754 453.418C716.754 458.962 721.248 463.456 726.792 463.456C732.336 463.456 736.83 458.962 736.83 453.418C736.83 447.874 732.336 443.38 726.792 443.38Z" fill="#275DA0"/>
<path d="M211.033 438.934C204.894 438.934 199.918 443.661 199.918 449.493C199.918 455.325 204.894 460.052 211.033 460.052C217.172 460.052 222.148 455.325 222.148 449.493C222.148 443.661 217.172 438.934 211.033 438.934Z" fill="#275DA0"/>
<path d="M702.244 223.186C694.298 223.186 687.856 216.744 687.856 208.798C687.856 200.852 694.298 194.41 702.244 194.41C710.19 194.41 716.632 200.852 716.632 208.798C716.632 216.744 710.19 223.186 702.244 223.186Z" fill="#275DA0"/>
<path d="M765.659 513.404C760.134 513.404 755.656 509.174 755.656 503.956C755.656 498.738 760.134 494.508 765.659 494.508C771.183 494.508 775.662 498.738 775.662 503.956C775.662 509.174 771.183 513.404 765.659 513.404Z" fill="#E1E4E5"/>
<path d="M126.81 403.867C122.375 403.867 118.78 400.272 118.78 395.837C118.78 391.402 122.375 387.807 126.81 387.807C131.245 387.807 134.84 391.402 134.84 395.837C134.84 400.272 131.245 403.867 126.81 403.867Z" fill="#E1E4E5"/>
<path d="M538.156 364.055C535.507 364.055 533.36 361.908 533.36 359.259C533.36 356.61 535.507 354.463 538.156 354.463C540.805 354.463 542.952 356.61 542.952 359.259C542.952 361.908 540.805 364.055 538.156 364.055Z" fill="#E1E4E5"/>
<path d="M520.205 102.523C516.421 102.523 513.353 99.4553 513.353 95.671C513.353 91.8867 516.421 88.819 520.205 88.819C523.989 88.819 527.057 91.8867 527.057 95.671C527.057 99.4553 523.989 102.523 520.205 102.523Z" fill="#E1E4E5"/>
<path d="M156.788 486.526C157.745 490.097 155.625 493.768 152.053 494.725C148.482 495.682 144.811 493.563 143.854 489.991C142.897 486.42 145.016 482.748 148.588 481.791C152.159 480.834 155.831 482.954 156.788 486.526Z" fill="#E1E4E5"/>
<path d="M201.907 218.814C196.988 218.814 193 214.826 193 209.907C193 204.988 196.988 201 201.907 201C206.826 201 210.814 204.988 210.814 209.907C210.814 214.826 206.826 218.814 201.907 218.814Z" fill="#E1E4E5"/>
<path d="M755.469 303.604C751.685 303.604 748.617 301.15 748.617 298.123C748.617 295.096 751.685 292.642 755.469 292.642C759.253 292.642 762.321 295.096 762.321 298.123C762.321 301.15 759.253 303.604 755.469 303.604Z" fill="#E1E4E5"/>
<path d="M573.889 302.345C575.881 309.779 571.47 317.419 564.036 319.411C556.603 321.403 548.962 316.991 546.971 309.558C544.979 302.125 549.39 294.484 556.823 292.492C564.257 290.501 571.897 294.912 573.889 302.345Z" fill="#E1E4E5"/>
<path d="M688.982 275.548H689.161C690.223 290.586 701.407 290.818 701.407 290.818C701.407 290.818 689.074 291.059 689.074 308.435C689.074 291.059 676.741 290.818 676.741 290.818C676.741 290.818 687.92 290.586 688.982 275.548ZM348.585 108.826H348.76C349.797 124.126 360.72 124.362 360.72 124.362C360.72 124.362 348.675 124.607 348.675 142.286C348.675 124.607 336.629 124.362 336.629 124.362C336.629 124.362 347.548 124.126 348.585 108.826ZM134.955 292H135.13C136.167 307.3 147.091 307.536 147.091 307.536C147.091 307.536 135.045 307.781 135.045 325.459C135.045 307.781 123 307.536 123 307.536C123 307.536 133.919 307.3 134.955 292V292ZM611.955 235H612.13C613.167 250.3 624.091 250.536 624.091 250.536C624.091 250.536 612.045 250.781 612.045 268.459C612.045 250.781 600 250.536 600 250.536C600 250.536 610.919 250.3 611.955 235ZM296.933 210H297.063C297.838 221.432 306 221.608 306 221.608C306 221.608 297 221.791 297 235C297 221.791 288 221.608 288 221.608C288 221.608 296.158 221.432 296.933 210Z" fill="#E1E4E5"/>
<defs>
<linearGradient id="paint0_linear_5_2" x1="325.679" y1="556.436" x2="325.879" y2="459.767" gradientUnits="userSpaceOnUse">
<stop stop-color="white"/>
<stop offset="1" stop-color="#EEEEEE"/>
</linearGradient>
<linearGradient id="paint1_linear_5_2" x1="352.92" y1="507.844" x2="353.14" y2="431.529" gradientUnits="userSpaceOnUse">
<stop stop-color="white"/>
<stop offset="1" stop-color="#EEEEEE"/>
</linearGradient>
<linearGradient id="paint2_linear_5_2" x1="379.694" y1="475.171" x2="379.927" y2="396.112" gradientUnits="userSpaceOnUse">
<stop stop-color="white"/>
<stop offset="1" stop-color="#EEEEEE"/>
</linearGradient>
<linearGradient id="paint3_linear_5_2" x1="340.579" y1="434.947" x2="340.681" y2="375.245" gradientUnits="userSpaceOnUse">
<stop stop-color="white"/>
<stop offset="1" stop-color="#EEEEEE"/>
</linearGradient>
<linearGradient id="paint4_linear_5_2" x1="188.857" y1="321.201" x2="301.438" y2="268.013" gradientUnits="userSpaceOnUse">
<stop stop-color="white"/>
<stop offset="1" stop-color="#EEEEEE"/>
</linearGradient>
<linearGradient id="paint5_linear_5_2" x1="305.567" y1="186.089" x2="151.597" y2="23.731" gradientUnits="userSpaceOnUse">
<stop stop-color="white"/>
<stop offset="1" stop-color="#EEEEEE"/>
</linearGradient>
<linearGradient id="paint6_linear_5_2" x1="577.88" y1="230.407" x2="662.345" y2="98" gradientUnits="userSpaceOnUse">
<stop stop-color="white"/>
<stop offset="1" stop-color="#EEEEEE"/>
</linearGradient>
</defs>
</svg>
