<svg width="648" height="633" viewBox="0 0 648 633" fill="none" xmlns="http://www.w3.org/2000/svg">
<g clip-path="url(#clip0_2_2)" filter="url(#filter0_b_2_2)">
<path d="M190.154 37.6193C197.148 37.6193 202.818 31.9491 202.818 24.9547C202.818 17.9602 197.148 12.29 190.154 12.29C183.159 12.29 177.489 17.9602 177.489 24.9547C177.489 31.9491 183.159 37.6193 190.154 37.6193Z" fill="white"/>
<path d="M411.146 142.174H236.636C232.659 142.179 228.847 143.761 226.035 146.573C223.223 149.385 221.641 153.197 221.636 157.174V545.024L219.636 545.634L176.826 558.744C174.797 559.362 172.606 559.151 170.733 558.155C168.86 557.16 167.459 555.462 166.836 553.434L39.4961 137.484C38.8764 135.455 39.0876 133.263 40.0833 131.39C41.079 129.516 42.7778 128.115 44.8062 127.494L110.776 107.294L302.026 48.7538L367.996 28.5538C369 28.2448 370.055 28.1368 371.101 28.2361C372.147 28.3353 373.162 28.6398 374.09 29.132C375.018 29.6243 375.84 30.2947 376.509 31.105C377.177 31.9152 377.679 32.8493 377.986 33.8538L410.536 140.174L411.146 142.174Z" fill="#F2F2F2"/>
<path d="M449.22 152.166L409.99 24.0257C409.338 21.8906 408.271 19.9051 406.85 18.1826C405.43 16.4601 403.684 15.0343 401.713 13.9868C399.741 12.9392 397.582 12.2904 395.36 12.0775C393.138 11.8645 390.895 12.0916 388.76 12.7457L296.01 41.1357L104.771 99.6857L12.0206 128.086C7.71196 129.409 4.10424 132.387 1.98938 136.368C-0.125476 140.348 -0.574702 145.005 0.74033 149.316L134.82 587.246C135.889 590.726 138.044 593.772 140.971 595.937C143.897 598.102 147.44 599.272 151.081 599.276C152.766 599.277 154.441 599.024 156.05 598.526L219.63 579.066L221.63 578.446V576.356L219.63 576.966L155.461 596.616C151.657 597.775 147.55 597.379 144.038 595.513C140.527 593.648 137.899 590.466 136.731 586.666L2.66074 148.726C2.08183 146.843 1.88006 144.864 2.06699 142.903C2.25392 140.941 2.82585 139.036 3.75007 137.297C4.67428 135.557 5.93264 134.016 7.45304 132.764C8.97343 131.511 10.726 130.57 12.6104 129.996L105.36 101.596L296.601 43.0557L389.351 14.6557C390.78 14.2195 392.266 13.9971 393.76 13.9957C396.968 14.0029 400.088 15.0369 402.665 16.9461C405.242 18.8554 407.14 21.5396 408.081 24.6057L447.13 152.166L447.751 154.166H449.831L449.22 152.166Z" fill="#3F3D56"/>
<path d="M135.915 128.481C133.987 128.48 132.111 127.861 130.561 126.715C129.012 125.569 127.87 123.957 127.303 122.115L114.423 80.0428C114.077 78.9127 113.957 77.7254 114.07 76.5489C114.182 75.3723 114.526 74.2295 115.08 73.1858C115.635 72.142 116.39 71.2176 117.301 70.4656C118.213 69.7135 119.264 69.1484 120.394 68.8025L296.333 14.9388C298.616 14.2423 301.081 14.4798 303.189 15.5992C305.296 16.7186 306.873 18.6284 307.574 20.9095L320.454 62.9817C321.15 65.2641 320.913 67.7294 319.793 69.8367C318.674 71.944 316.764 73.5213 314.484 74.2225L138.544 128.086C137.692 128.348 136.806 128.481 135.915 128.481Z" fill="#6C63FF"/>
<path d="M197 52C208.046 52 217 43.0457 217 32C217 20.9543 208.046 12 197 12C185.954 12 177 20.9543 177 32C177 43.0457 185.954 52 197 52Z" fill="#6C63FF"/>
<path d="M447.136 140.174H236.636C232.13 140.18 227.809 141.973 224.622 145.16C221.436 148.347 219.643 152.667 219.636 157.174V564.974L221.636 564.364V157.174C221.641 153.197 223.223 149.385 226.035 146.573C228.847 143.761 232.659 142.179 236.636 142.174H447.756L447.136 140.174ZM630.636 140.174H236.636C232.13 140.18 227.809 141.973 224.622 145.16C221.436 148.347 219.643 152.667 219.636 157.174V615.174C219.643 619.681 221.436 624.001 224.622 627.188C227.809 630.374 232.13 632.167 236.636 632.174H630.636C635.143 632.167 639.463 630.374 642.65 627.188C645.837 624.001 647.63 619.681 647.636 615.174V157.174C647.63 152.667 645.837 148.347 642.65 145.16C639.463 141.973 635.143 140.18 630.636 140.174V140.174ZM645.636 615.174C645.631 619.151 644.05 622.963 641.238 625.775C638.426 628.587 634.613 630.169 630.636 630.174H236.636C232.659 630.169 228.847 628.587 226.035 625.775C223.223 622.963 221.641 619.151 221.636 615.174V157.174C221.641 153.197 223.223 149.385 226.035 146.573C228.847 143.761 232.659 142.179 236.636 142.174H630.636C634.613 142.179 638.426 143.761 641.238 146.573C644.05 149.385 645.631 153.197 645.636 157.174V615.174Z" fill="#3F3D56"/>
<path d="M525.636 184.174H341.636C339.25 184.171 336.963 183.222 335.275 181.535C333.588 179.848 332.639 177.56 332.636 175.174V131.174C332.639 128.788 333.588 126.5 335.276 124.813C336.963 123.126 339.25 122.177 341.636 122.174H525.636C528.023 122.177 530.31 123.126 531.997 124.813C533.685 126.5 534.634 128.788 534.636 131.174V175.174C534.634 177.56 533.685 179.848 531.997 181.535C530.31 183.222 528.023 184.171 525.636 184.174V184.174Z" fill="#6C63FF"/>
<path d="M434 130C445.046 130 454 121.046 454 110C454 98.9543 445.046 90 434 90C422.954 90 414 98.9543 414 110C414 121.046 422.954 130 434 130Z" fill="#6C63FF"/>
<path d="M434.182 122.364C440.91 122.364 446.364 116.91 446.364 110.182C446.364 103.454 440.91 98 434.182 98C427.454 98 422 103.454 422 110.182C422 116.91 427.454 122.364 434.182 122.364Z" fill="white"/>
<path d="M602.636 582.174H264.636C262.383 582.171 260.222 581.275 258.629 579.681C257.035 578.088 256.139 575.927 256.136 573.674V168.674C256.139 166.42 257.035 164.26 258.629 162.666C260.222 161.073 262.383 160.176 264.636 160.174H602.636C604.89 160.176 607.05 161.073 608.644 162.666C610.237 164.26 611.134 166.42 611.136 168.674V573.674C611.134 575.927 610.237 578.088 608.644 579.681C607.05 581.275 604.89 582.171 602.636 582.174V582.174Z" fill="#E6E6E6"/>
<path d="M326.934 298.712V269.042C326.934 268.214 327.517 267.8 328.682 267.8C329.142 267.8 329.526 267.907 329.832 268.122C330.17 268.337 330.338 268.643 330.338 269.042V296.642H345.426C345.825 296.642 346.132 296.811 346.346 297.148C346.592 297.485 346.714 297.884 346.714 298.344C346.714 299.448 346.285 300 345.426 300H329.602C327.824 300 326.934 299.571 326.934 298.712ZM348.234 288.592C348.234 285.955 348.924 283.685 350.304 281.784C351.715 279.852 353.402 278.457 355.364 277.598C357.358 276.739 359.443 276.31 361.62 276.31C364.687 276.31 367.508 277.475 370.084 279.806C372.691 282.106 373.994 285.019 373.994 288.546C373.994 291.889 372.844 294.756 370.544 297.148C368.244 299.509 365.239 300.69 361.528 300.69C357.879 300.69 354.751 299.509 352.144 297.148C349.538 294.756 348.234 291.904 348.234 288.592ZM351.638 288.638C351.638 290.815 352.635 292.809 354.628 294.618C356.622 296.397 358.937 297.286 361.574 297.286C364.058 297.286 366.174 296.381 367.922 294.572C369.701 292.763 370.59 290.754 370.59 288.546C370.59 286.399 369.747 284.391 368.06 282.52C366.374 280.649 364.196 279.714 361.528 279.714C358.4 279.714 355.962 280.665 354.214 282.566C352.497 284.467 351.638 286.491 351.638 288.638ZM377.478 288.592C377.478 285.955 378.168 283.685 379.548 281.784C380.959 279.852 382.646 278.457 384.608 277.598C386.602 276.739 388.687 276.31 390.864 276.31C393.931 276.31 396.752 277.475 399.328 279.806C401.935 282.106 403.238 285.019 403.238 288.546C403.238 291.889 402.088 294.756 399.788 297.148C397.488 299.509 394.483 300.69 390.772 300.69C387.123 300.69 383.995 299.509 381.388 297.148C378.782 294.756 377.478 291.904 377.478 288.592ZM380.882 288.638C380.882 290.815 381.879 292.809 383.872 294.618C385.866 296.397 388.181 297.286 390.818 297.286C393.302 297.286 395.418 296.381 397.166 294.572C398.945 292.763 399.834 290.754 399.834 288.546C399.834 286.399 398.991 284.391 397.304 282.52C395.618 280.649 393.44 279.714 390.772 279.714C387.644 279.714 385.206 280.665 383.458 282.566C381.741 284.467 380.882 286.491 380.882 288.638ZM407.735 298.712V266.742C407.735 265.914 408.317 265.5 409.483 265.5C409.943 265.5 410.326 265.607 410.633 265.822C410.97 266.037 411.139 266.343 411.139 266.742V286.384L426.917 277.322C427.254 277.107 427.576 277 427.883 277C428.343 277 428.711 277.23 428.987 277.69C429.293 278.119 429.447 278.579 429.447 279.07C429.447 279.53 429.324 279.837 429.079 279.99L418.729 285.924L432.943 297.654C433.065 297.869 433.127 298.083 433.127 298.298C433.127 298.819 432.82 299.264 432.207 299.632C431.808 299.877 431.409 300 431.011 300C430.581 300 430.244 299.816 429.999 299.448L415.555 287.764L411.139 290.294V298.712C411.139 299.111 410.97 299.433 410.633 299.678C410.295 299.893 409.897 300 409.437 300C408.302 300 407.735 299.571 407.735 298.712ZM434.8 295.63C434.8 295.231 434.969 294.802 435.306 294.342C435.674 293.882 436.088 293.591 436.548 293.468C436.763 293.468 436.87 293.499 436.87 293.56C437.851 294.633 439.262 295.477 441.102 296.09C442.942 296.673 444.383 297.01 445.426 297.102C446.499 297.194 447.496 297.24 448.416 297.24C452.403 297.24 454.396 296.029 454.396 293.606C454.396 292.778 454.089 292.119 453.476 291.628C452.893 291.107 452.081 290.754 451.038 290.57C450.026 290.386 448.999 290.263 447.956 290.202C446.913 290.141 445.779 290.095 444.552 290.064C443.325 290.003 442.39 289.911 441.746 289.788C439.998 289.451 438.449 288.745 437.1 287.672C435.751 286.568 435.076 285.28 435.076 283.808C435.076 281.477 436.241 279.699 438.572 278.472C440.933 277.215 443.525 276.586 446.346 276.586C448.247 276.586 450.287 276.923 452.464 277.598C454.641 278.242 456.267 279.254 457.34 280.634C457.371 280.695 457.386 280.772 457.386 280.864C457.386 281.263 457.202 281.738 456.834 282.29C456.466 282.811 456.113 283.072 455.776 283.072C455.469 283.072 455.163 282.827 454.856 282.336C453.384 280.772 450.455 279.99 446.07 279.99C444.261 279.99 442.543 280.297 440.918 280.91C439.293 281.523 438.48 282.428 438.48 283.624C438.48 284.636 439.185 285.403 440.596 285.924C442.007 286.415 443.509 286.66 445.104 286.66C446.239 286.66 447.189 286.675 447.956 286.706C448.723 286.737 449.658 286.829 450.762 286.982C451.866 287.105 452.786 287.335 453.522 287.672C454.258 287.979 454.979 288.393 455.684 288.914C456.389 289.405 456.911 290.079 457.248 290.938C457.616 291.766 457.8 292.747 457.8 293.882C457.8 295.446 457.309 296.765 456.328 297.838C455.377 298.881 454.273 299.601 453.016 300C451.789 300.429 450.486 300.644 449.106 300.644C442.635 300.644 437.974 299.264 435.122 296.504C434.907 296.289 434.8 295.998 434.8 295.63ZM473.5 298.712V266.742C473.5 265.914 474.083 265.5 475.248 265.5C475.708 265.5 476.092 265.607 476.398 265.822C476.736 266.037 476.904 266.343 476.904 266.742V298.712C476.904 299.111 476.736 299.433 476.398 299.678C476.061 299.893 475.662 300 475.202 300C474.068 300 473.5 299.571 473.5 298.712ZM482.44 298.712V278.242C482.44 277.414 483.022 277 484.188 277C484.648 277 485.031 277.107 485.338 277.322C485.675 277.537 485.844 277.843 485.844 278.242V298.712C485.844 299.111 485.675 299.433 485.338 299.678C485 299.893 484.602 300 484.142 300C483.007 300 482.44 299.571 482.44 298.712ZM482.44 271.112V270.284C482.44 269.456 483.022 269.042 484.188 269.042C484.648 269.042 485.031 269.149 485.338 269.364C485.675 269.579 485.844 269.885 485.844 270.284V271.112C485.844 271.511 485.675 271.833 485.338 272.078C485 272.293 484.602 272.4 484.142 272.4C483.007 272.4 482.44 271.971 482.44 271.112ZM491.379 298.712V266.742C491.379 265.914 491.962 265.5 493.127 265.5C493.587 265.5 493.97 265.607 494.277 265.822C494.614 266.037 494.783 266.343 494.783 266.742V286.384L510.561 277.322C510.898 277.107 511.22 277 511.527 277C511.987 277 512.355 277.23 512.631 277.69C512.938 278.119 513.091 278.579 513.091 279.07C513.091 279.53 512.968 279.837 512.723 279.99L502.373 285.924L516.587 297.654C516.71 297.869 516.771 298.083 516.771 298.298C516.771 298.819 516.464 299.264 515.851 299.632C515.452 299.877 515.054 300 514.655 300C514.226 300 513.888 299.816 513.643 299.448L499.199 287.764L494.783 290.294V298.712C494.783 299.111 494.614 299.433 494.277 299.678C493.94 299.893 493.541 300 493.081 300C491.946 300 491.379 299.571 491.379 298.712ZM517.769 287.856C517.769 285.893 518.199 284.145 519.057 282.612C519.916 281.079 521.051 279.867 522.461 278.978C523.872 278.089 525.39 277.429 527.015 277C528.641 276.54 530.297 276.31 531.983 276.31C534.989 276.31 537.319 276.969 538.975 278.288C540.631 279.576 541.459 281.171 541.459 283.072C541.459 285.127 540.493 286.875 538.561 288.316C536.629 289.757 533.885 290.478 530.327 290.478C527.138 290.478 524.102 290.018 521.219 289.098C521.557 291.367 522.615 293.269 524.393 294.802C526.172 296.335 528.365 297.102 530.971 297.102C532.351 297.102 533.777 296.887 535.249 296.458C536.752 296.029 537.933 295.415 538.791 294.618C538.914 294.373 539.159 294.25 539.527 294.25C539.957 294.25 540.417 294.449 540.907 294.848C541.398 295.216 541.643 295.599 541.643 295.998C540.877 297.562 539.374 298.712 537.135 299.448C534.927 300.153 532.781 300.506 530.695 300.506C526.923 300.506 523.826 299.264 521.403 296.78C518.981 294.296 517.769 291.321 517.769 287.856ZM521.403 285.556C523.703 286.568 526.555 287.074 529.959 287.074C532.627 287.074 534.651 286.66 536.031 285.832C537.411 284.973 538.101 284.023 538.101 282.98C538.101 282.06 537.519 281.293 536.353 280.68C535.219 280.036 533.517 279.714 531.247 279.714C528.794 279.714 526.739 280.266 525.083 281.37C523.458 282.443 522.231 283.839 521.403 285.556ZM324.892 345.616V333.196C324.892 332.797 325.046 332.491 325.352 332.276C325.69 332.031 326.073 331.908 326.502 331.908C327.637 331.908 328.204 332.337 328.204 333.196V345.202C328.204 346.337 328.511 347.349 329.124 348.238C329.738 349.127 330.504 349.802 331.424 350.262C332.375 350.722 333.295 351.075 334.184 351.32C335.104 351.535 335.948 351.642 336.714 351.642C338.892 351.642 340.946 350.967 342.878 349.618C344.81 348.269 346.175 346.475 346.972 344.236V333.196C346.972 332.368 347.555 331.954 348.72 331.954C349.18 331.954 349.564 332.061 349.87 332.276C350.208 332.491 350.376 332.797 350.376 333.196V355.23C350.376 357.039 349.962 358.695 349.134 360.198C348.337 361.731 347.294 362.958 346.006 363.878C344.718 364.798 343.323 365.503 341.82 365.994C340.318 366.485 338.83 366.73 337.358 366.73C334.844 366.73 332.375 366.147 329.952 364.982C327.56 363.817 326.349 362.253 326.318 360.29C326.318 359.799 326.472 359.416 326.778 359.14C327.116 358.895 327.514 358.772 327.974 358.772C328.465 358.772 328.894 358.91 329.262 359.186C329.63 359.462 329.814 359.815 329.814 360.244C329.814 361.225 330.688 361.977 332.436 362.498C334.184 363.05 335.902 363.326 337.588 363.326C338.968 363.326 340.333 363.065 341.682 362.544C343.062 362.053 344.289 361.179 345.362 359.922C346.436 358.695 346.972 357.239 346.972 355.552V350.216C344.182 353.405 340.624 355 336.3 355C333.295 355 330.642 354.141 328.342 352.424C326.042 350.676 324.892 348.407 324.892 345.616ZM354.883 343.592C354.883 340.955 355.573 338.685 356.953 336.784C358.363 334.852 360.05 333.457 362.013 332.598C364.006 331.739 366.091 331.31 368.269 331.31C371.335 331.31 374.157 332.475 376.733 334.806C379.339 337.106 380.643 340.019 380.643 343.546C380.643 346.889 379.493 349.756 377.193 352.148C374.893 354.509 371.887 355.69 368.177 355.69C364.527 355.69 361.399 354.509 358.793 352.148C356.186 349.756 354.883 346.904 354.883 343.592ZM358.287 343.638C358.287 345.815 359.283 347.809 361.277 349.618C363.27 351.397 365.585 352.286 368.223 352.286C370.707 352.286 372.823 351.381 374.571 349.572C376.349 347.763 377.239 345.754 377.239 343.546C377.239 341.399 376.395 339.391 374.709 337.52C373.022 335.649 370.845 334.714 368.177 334.714C365.049 334.714 362.611 335.665 360.863 337.566C359.145 339.467 358.287 341.491 358.287 343.638ZM384.817 345.616C384.817 345.34 384.817 343.975 384.817 341.522C384.848 339.038 384.863 336.293 384.863 333.288C384.863 332.889 385.032 332.583 385.369 332.368C385.706 332.123 386.105 332 386.565 332C387.7 332 388.267 332.429 388.267 333.288V345.202C388.267 347.379 389.034 349.081 390.567 350.308C392.131 351.504 393.741 352.102 395.397 352.102C397.482 352.102 399.706 351.351 402.067 349.848C404.459 348.315 406.115 346.413 407.035 344.144V333.242C407.035 332.414 407.618 332 408.783 332C409.243 332 409.626 332.107 409.933 332.322C410.27 332.537 410.439 332.843 410.439 333.242V353.758C410.439 354.157 410.27 354.463 409.933 354.678C409.626 354.893 409.243 355 408.783 355C407.618 355 407.035 354.586 407.035 353.758V349.986C405.502 351.673 403.662 353.007 401.515 353.988C399.399 354.969 397.222 355.46 394.983 355.46C392.1 355.46 389.678 354.54 387.715 352.7C385.783 350.86 384.817 348.499 384.817 345.616ZM426.039 346.628C426.039 342.519 427.649 338.977 430.869 336.002C434.089 333.027 437.738 331.54 441.817 331.54C444.362 331.54 446.586 332.445 448.487 334.254V321.696C448.487 320.899 449.039 320.5 450.143 320.5C451.308 320.5 451.891 320.899 451.891 321.696V353.712C451.891 354.571 451.324 355 450.189 355C449.729 355 449.33 354.893 448.993 354.678C448.656 354.433 448.487 354.111 448.487 353.712V346.214C446.003 349.434 443.626 351.765 441.357 353.206C439.118 354.647 436.803 355.368 434.411 355.368C432.203 355.368 430.256 354.479 428.569 352.7C426.882 350.891 426.039 348.867 426.039 346.628ZM429.351 346.72C429.351 348.468 429.964 349.802 431.191 350.722C432.418 351.611 433.721 352.056 435.101 352.056C436.696 352.056 438.52 351.274 440.575 349.71C442.63 348.115 444.332 346.352 445.681 344.42C447.061 342.457 447.751 340.924 447.751 339.82C447.751 338.9 447.475 338.087 446.923 337.382C446.402 336.646 445.742 336.109 444.945 335.772C444.178 335.435 443.473 335.189 442.829 335.036C442.185 334.852 441.648 334.76 441.219 334.76C438.214 334.76 435.484 335.971 433.031 338.394C430.578 340.786 429.351 343.561 429.351 346.72ZM456.406 343.592C456.406 340.955 457.096 338.685 458.476 336.784C459.887 334.852 461.574 333.457 463.536 332.598C465.53 331.739 467.615 331.31 469.792 331.31C472.859 331.31 475.68 332.475 478.256 334.806C480.863 337.106 482.166 340.019 482.166 343.546C482.166 346.889 481.016 349.756 478.716 352.148C476.416 354.509 473.411 355.69 469.7 355.69C466.051 355.69 462.923 354.509 460.316 352.148C457.71 349.756 456.406 346.904 456.406 343.592ZM459.81 343.638C459.81 345.815 460.807 347.809 462.8 349.618C464.794 351.397 467.109 352.286 469.746 352.286C472.23 352.286 474.346 351.381 476.094 349.572C477.873 347.763 478.762 345.754 478.762 343.546C478.762 341.399 477.919 339.391 476.232 337.52C474.546 335.649 472.368 334.714 469.7 334.714C466.572 334.714 464.134 335.665 462.386 337.566C460.669 339.467 459.81 341.491 459.81 343.638ZM486.662 353.804V333.242C486.662 332.843 486.816 332.537 487.122 332.322C487.46 332.107 487.858 332 488.318 332C489.484 332 490.066 332.414 490.066 333.242V336.876C491.6 335.22 493.455 333.917 495.632 332.966C497.81 331.985 500.018 331.494 502.256 331.494C505.139 331.494 507.546 332.399 509.478 334.208C511.441 335.987 512.422 338.317 512.422 341.2C512.422 341.476 512.407 342.887 512.376 345.432C512.376 347.947 512.376 350.707 512.376 353.712C512.376 354.111 512.208 354.433 511.87 354.678C511.533 354.893 511.134 355 510.674 355C509.54 355 508.972 354.571 508.972 353.712V341.614C508.972 339.437 508.19 337.765 506.626 336.6C505.093 335.435 503.498 334.852 501.842 334.852C499.604 334.852 497.304 335.603 494.942 337.106C492.612 338.578 490.986 340.449 490.066 342.718V353.804C490.066 354.632 489.484 355.046 488.318 355.046C487.858 355.046 487.46 354.939 487.122 354.724C486.816 354.509 486.662 354.203 486.662 353.804ZM516.528 323.168C516.528 322.371 516.819 321.727 517.402 321.236C518.015 320.745 518.797 320.5 519.748 320.5C521.741 320.5 522.738 321.665 522.738 323.996C522.738 325.315 522.155 326.802 520.99 328.458C519.825 330.114 518.951 330.942 518.368 330.942C517.816 330.942 517.54 330.758 517.54 330.39C517.54 330.237 517.663 329.731 517.908 328.872C518.184 327.983 518.322 327.339 518.322 326.94C518.322 326.541 518.215 326.281 518 326.158C517.019 325.483 516.528 324.487 516.528 323.168ZM526.158 333.702C526.158 333.242 526.265 332.843 526.48 332.506C526.725 332.169 527.047 332 527.446 332H529.01V326.342C529.01 325.943 529.163 325.637 529.47 325.422C529.807 325.207 530.206 325.1 530.666 325.1C531.831 325.1 532.414 325.514 532.414 326.342V332H539.774C540.173 332 540.479 332.169 540.694 332.506C540.909 332.813 541.016 333.196 541.016 333.656C541.016 334.821 540.602 335.404 539.774 335.404H532.414V346.398C532.414 349.833 533.717 351.55 536.324 351.55C537.428 351.55 538.379 351.243 539.176 350.63C540.004 350.017 540.418 348.943 540.418 347.41C540.418 346.981 540.587 346.628 540.924 346.352C541.292 346.076 541.721 345.938 542.212 345.938C542.672 345.938 543.055 346.076 543.362 346.352C543.669 346.597 543.822 346.965 543.822 347.456C543.791 349.879 543.055 351.734 541.614 353.022C540.203 354.31 538.44 354.954 536.324 354.954C531.448 354.954 529.01 351.688 529.01 345.156V335.404H527.446C526.587 335.404 526.158 334.837 526.158 333.702ZM327.572 408.804V376.696C327.572 376.297 327.725 375.991 328.032 375.776C328.369 375.561 328.768 375.454 329.228 375.454C330.393 375.454 330.976 375.868 330.976 376.696V391.968C332.478 390.373 334.318 389.116 336.496 388.196C338.673 387.276 340.896 386.816 343.166 386.816C346.079 386.816 348.502 387.675 350.434 389.392C352.366 391.079 353.332 393.348 353.332 396.2C353.332 396.476 353.316 397.887 353.286 400.432C353.286 402.947 353.286 405.707 353.286 408.712C353.286 409.111 353.117 409.433 352.78 409.678C352.442 409.893 352.044 410 351.584 410C350.449 410 349.882 409.571 349.882 408.712V396.614C349.882 395.111 349.452 393.854 348.594 392.842C347.766 391.799 346.846 391.094 345.834 390.726C344.822 390.358 343.794 390.174 342.752 390.174C340.482 390.174 338.167 390.879 335.806 392.29C333.475 393.701 331.865 395.51 330.976 397.718V408.804C330.976 409.632 330.393 410.046 329.228 410.046C328.768 410.046 328.369 409.939 328.032 409.724C327.725 409.509 327.572 409.203 327.572 408.804ZM357.511 401.628C357.511 397.519 359.121 393.977 362.341 391.002C365.561 388.027 369.21 386.54 373.289 386.54C376.079 386.54 378.456 387.598 380.419 389.714C382.381 391.83 383.363 394.237 383.363 396.936L383.317 408.988C383.317 409.387 383.117 409.709 382.719 409.954C382.351 410.169 381.937 410.276 381.477 410.276C380.465 410.276 379.959 409.847 379.959 408.988V401.214C377.475 404.434 375.098 406.765 372.829 408.206C370.59 409.647 368.275 410.368 365.883 410.368C363.675 410.368 361.727 409.479 360.041 407.7C358.354 405.891 357.511 403.867 357.511 401.628ZM360.823 401.72C360.823 403.468 361.436 404.802 362.663 405.722C363.889 406.611 365.193 407.056 366.573 407.056C368.167 407.056 369.992 406.274 372.047 404.71C374.101 403.115 375.803 401.352 377.153 399.42C378.533 397.457 379.223 395.924 379.223 394.82C379.223 393.9 378.947 393.087 378.395 392.382C377.873 391.646 377.214 391.109 376.417 390.772C375.65 390.435 374.945 390.189 374.301 390.036C373.657 389.852 373.12 389.76 372.691 389.76C369.685 389.76 366.956 390.971 364.503 393.394C362.049 395.786 360.823 398.561 360.823 401.72ZM386.241 388.702C386.241 388.242 386.471 387.843 386.931 387.506C387.391 387.169 387.851 387 388.311 387C388.802 387 389.17 387.23 389.415 387.69L398.845 404.48L408.321 387.69C408.567 387.23 408.935 387 409.425 387C409.885 387 410.345 387.169 410.805 387.506C411.265 387.843 411.495 388.242 411.495 388.702C411.495 388.917 411.465 389.07 411.403 389.162L400.731 408.39C400.21 409.463 399.581 410 398.845 410C398.14 410 397.527 409.463 397.005 408.39L386.333 389.162C386.272 389.07 386.241 388.917 386.241 388.702ZM413.753 397.856C413.753 395.893 414.182 394.145 415.041 392.612C415.9 391.079 417.034 389.867 418.445 388.978C419.856 388.089 421.374 387.429 422.999 387C424.624 386.54 426.28 386.31 427.967 386.31C430.972 386.31 433.303 386.969 434.959 388.288C436.615 389.576 437.443 391.171 437.443 393.072C437.443 395.127 436.477 396.875 434.545 398.316C432.613 399.757 429.868 400.478 426.311 400.478C423.122 400.478 420.086 400.018 417.203 399.098C417.54 401.367 418.598 403.269 420.377 404.802C422.156 406.335 424.348 407.102 426.955 407.102C428.335 407.102 429.761 406.887 431.233 406.458C432.736 406.029 433.916 405.415 434.775 404.618C434.898 404.373 435.143 404.25 435.511 404.25C435.94 404.25 436.4 404.449 436.891 404.848C437.382 405.216 437.627 405.599 437.627 405.998C436.86 407.562 435.358 408.712 433.119 409.448C430.911 410.153 428.764 410.506 426.679 410.506C422.907 410.506 419.81 409.264 417.387 406.78C414.964 404.296 413.753 401.321 413.753 397.856ZM417.387 395.556C419.687 396.568 422.539 397.074 425.943 397.074C428.611 397.074 430.635 396.66 432.015 395.832C433.395 394.973 434.085 394.023 434.085 392.98C434.085 392.06 433.502 391.293 432.337 390.68C431.202 390.036 429.5 389.714 427.231 389.714C424.778 389.714 422.723 390.266 421.067 391.37C419.442 392.443 418.215 393.839 417.387 395.556ZM452.251 401.628C452.251 397.519 453.861 393.977 457.081 391.002C460.301 388.027 463.95 386.54 468.029 386.54C470.82 386.54 473.196 387.598 475.159 389.714C477.122 391.83 478.103 394.237 478.103 396.936L478.057 408.988C478.057 409.387 477.858 409.709 477.459 409.954C477.091 410.169 476.677 410.276 476.217 410.276C475.205 410.276 474.699 409.847 474.699 408.988V401.214C472.215 404.434 469.838 406.765 467.569 408.206C465.33 409.647 463.015 410.368 460.623 410.368C458.415 410.368 456.468 409.479 454.781 407.7C453.094 405.891 452.251 403.867 452.251 401.628ZM455.563 401.72C455.563 403.468 456.176 404.802 457.403 405.722C458.63 406.611 459.933 407.056 461.313 407.056C462.908 407.056 464.732 406.274 466.787 404.71C468.842 403.115 470.544 401.352 471.893 399.42C473.273 397.457 473.963 395.924 473.963 394.82C473.963 393.9 473.687 393.087 473.135 392.382C472.614 391.646 471.954 391.109 471.157 390.772C470.39 390.435 469.685 390.189 469.041 390.036C468.397 389.852 467.86 389.76 467.431 389.76C464.426 389.76 461.696 390.971 459.243 393.394C456.79 395.786 455.563 398.561 455.563 401.72ZM483.271 408.804V388.242C483.271 387.843 483.424 387.537 483.731 387.322C484.068 387.107 484.467 387 484.927 387C486.092 387 486.675 387.414 486.675 388.242V391.876C488.208 390.22 490.063 388.917 492.241 387.966C494.418 386.985 496.626 386.494 498.865 386.494C501.747 386.494 504.155 387.399 506.087 389.208C508.049 390.987 509.031 393.317 509.031 396.2C509.031 396.476 509.015 397.887 508.985 400.432C508.985 402.947 508.985 405.707 508.985 408.712C508.985 409.111 508.816 409.433 508.479 409.678C508.141 409.893 507.743 410 507.283 410C506.148 410 505.581 409.571 505.581 408.712V396.614C505.581 394.437 504.799 392.765 503.235 391.6C501.701 390.435 500.107 389.852 498.451 389.852C496.212 389.852 493.912 390.603 491.551 392.106C489.22 393.578 487.595 395.449 486.675 397.718V408.804C486.675 409.632 486.092 410.046 484.927 410.046C484.467 410.046 484.068 409.939 483.731 409.724C483.424 409.509 483.271 409.203 483.271 408.804ZM513.946 400.616V388.196C513.946 387.797 514.099 387.491 514.406 387.276C514.743 387.031 515.127 386.908 515.556 386.908C516.691 386.908 517.258 387.337 517.258 388.196V400.202C517.258 401.337 517.565 402.349 518.178 403.238C518.791 404.127 519.558 404.802 520.478 405.262C521.429 405.722 522.349 406.075 523.238 406.32C524.158 406.535 525.001 406.642 525.768 406.642C527.945 406.642 530 405.967 531.932 404.618C533.864 403.269 535.229 401.475 536.026 399.236V388.196C536.026 387.368 536.609 386.954 537.774 386.954C538.234 386.954 538.617 387.061 538.924 387.276C539.261 387.491 539.43 387.797 539.43 388.196V410.23C539.43 412.039 539.016 413.695 538.188 415.198C537.391 416.731 536.348 417.958 535.06 418.878C533.772 419.798 532.377 420.503 530.874 420.994C529.371 421.485 527.884 421.73 526.412 421.73C523.897 421.73 521.429 421.147 519.006 419.982C516.614 418.817 515.403 417.253 515.372 415.29C515.372 414.799 515.525 414.416 515.832 414.14C516.169 413.895 516.568 413.772 517.028 413.772C517.519 413.772 517.948 413.91 518.316 414.186C518.684 414.462 518.868 414.815 518.868 415.244C518.868 416.225 519.742 416.977 521.49 417.498C523.238 418.05 524.955 418.326 526.642 418.326C528.022 418.326 529.387 418.065 530.736 417.544C532.116 417.053 533.343 416.179 534.416 414.922C535.489 413.695 536.026 412.239 536.026 410.552V405.216C533.235 408.405 529.678 410 525.354 410C522.349 410 519.696 409.141 517.396 407.424C515.096 405.676 513.946 403.407 513.946 400.616ZM299.63 463.712V443.242C299.63 442.414 300.213 442 301.378 442C301.838 442 302.221 442.107 302.528 442.322C302.865 442.537 303.034 442.843 303.034 443.242V463.712C303.034 464.111 302.865 464.433 302.528 464.678C302.191 464.893 301.792 465 301.332 465C300.197 465 299.63 464.571 299.63 463.712ZM299.63 436.112V435.284C299.63 434.456 300.213 434.042 301.378 434.042C301.838 434.042 302.221 434.149 302.528 434.364C302.865 434.579 303.034 434.885 303.034 435.284V436.112C303.034 436.511 302.865 436.833 302.528 437.078C302.191 437.293 301.792 437.4 301.332 437.4C300.197 437.4 299.63 436.971 299.63 436.112ZM307.052 443.702C307.052 443.242 307.159 442.843 307.374 442.506C307.619 442.169 307.941 442 308.34 442H309.904V436.342C309.904 435.943 310.057 435.637 310.364 435.422C310.701 435.207 311.1 435.1 311.56 435.1C312.725 435.1 313.308 435.514 313.308 436.342V442H320.668C321.066 442 321.373 442.169 321.588 442.506C321.802 442.813 321.91 443.196 321.91 443.656C321.91 444.821 321.496 445.404 320.668 445.404H313.308V456.398C313.308 459.833 314.611 461.55 317.218 461.55C318.322 461.55 319.272 461.243 320.07 460.63C320.898 460.017 321.312 458.943 321.312 457.41C321.312 456.981 321.48 456.628 321.818 456.352C322.186 456.076 322.615 455.938 323.106 455.938C323.566 455.938 323.949 456.076 324.256 456.352C324.562 456.597 324.716 456.965 324.716 457.456C324.685 459.879 323.949 461.734 322.508 463.022C321.097 464.31 319.334 464.954 317.218 464.954C312.342 464.954 309.904 461.688 309.904 455.156V445.404H308.34C307.481 445.404 307.052 444.837 307.052 443.702ZM327.233 452.856C327.233 450.893 327.663 449.145 328.521 447.612C329.38 446.079 330.515 444.867 331.925 443.978C333.336 443.089 334.854 442.429 336.479 442C338.105 441.54 339.761 441.31 341.447 441.31C344.453 441.31 346.783 441.969 348.439 443.288C350.095 444.576 350.923 446.171 350.923 448.072C350.923 450.127 349.957 451.875 348.025 453.316C346.093 454.757 343.349 455.478 339.791 455.478C336.602 455.478 333.566 455.018 330.683 454.098C331.021 456.367 332.079 458.269 333.857 459.802C335.636 461.335 337.829 462.102 340.435 462.102C341.815 462.102 343.241 461.887 344.713 461.458C346.216 461.029 347.397 460.415 348.255 459.618C348.378 459.373 348.623 459.25 348.991 459.25C349.421 459.25 349.881 459.449 350.371 459.848C350.862 460.216 351.107 460.599 351.107 460.998C350.341 462.562 348.838 463.712 346.599 464.448C344.391 465.153 342.245 465.506 340.159 465.506C336.387 465.506 333.29 464.264 330.867 461.78C328.445 459.296 327.233 456.321 327.233 452.856ZM330.867 450.556C333.167 451.568 336.019 452.074 339.423 452.074C342.091 452.074 344.115 451.66 345.495 450.832C346.875 449.973 347.565 449.023 347.565 447.98C347.565 447.06 346.983 446.293 345.817 445.68C344.683 445.036 342.981 444.714 340.711 444.714C338.258 444.714 336.203 445.266 334.547 446.37C332.922 447.443 331.695 448.839 330.867 450.556ZM355.602 463.712V443.334C355.602 442.506 356.184 442.092 357.35 442.092C357.81 442.092 358.193 442.199 358.5 442.414C358.837 442.629 359.006 442.935 359.006 443.334V445.772C359.987 444.607 361.183 443.61 362.594 442.782C364.004 441.954 365.4 441.54 366.78 441.54C370.552 441.54 373.235 442.905 374.83 445.634C375.78 444.315 376.992 443.303 378.464 442.598C379.966 441.893 381.484 441.54 383.018 441.54C385.87 441.54 388.124 442.353 389.78 443.978C391.436 445.603 392.264 447.857 392.264 450.74C392.264 451.016 392.248 452.534 392.218 455.294C392.218 458.023 392.218 460.891 392.218 463.896C392.218 464.295 392.049 464.617 391.712 464.862C391.374 465.077 390.991 465.184 390.562 465.184C389.427 465.184 388.86 464.755 388.86 463.896V451.154C388.86 447.014 386.974 444.944 383.202 444.944C382.65 444.944 382.082 445.005 381.5 445.128C380.948 445.22 380.334 445.419 379.66 445.726C379.016 446.033 378.433 446.416 377.912 446.876C377.39 447.305 376.961 447.903 376.624 448.67C376.286 449.437 376.118 450.295 376.118 451.246C376.118 452.442 376.102 453.96 376.072 455.8C376.072 457.64 376.072 460.339 376.072 463.896C376.072 464.295 375.888 464.617 375.52 464.862C375.182 465.077 374.784 465.184 374.324 465.184C373.25 465.184 372.714 464.755 372.714 463.896V451.154C372.714 448.915 372.177 447.321 371.104 446.37C370.03 445.419 368.65 444.944 366.964 444.944C365.338 444.944 363.759 445.557 362.226 446.784C360.723 448.011 359.65 449.437 359.006 451.062V463.712C359.006 464.111 358.837 464.433 358.5 464.678C358.162 464.893 357.764 465 357.304 465C356.169 465 355.602 464.571 355.602 463.712ZM407.599 453.592C407.599 450.955 408.289 448.685 409.669 446.784C411.079 444.852 412.766 443.457 414.729 442.598C416.722 441.739 418.807 441.31 420.985 441.31C424.051 441.31 426.873 442.475 429.449 444.806C432.055 447.106 433.359 450.019 433.359 453.546C433.359 456.889 432.209 459.756 429.909 462.148C427.609 464.509 424.603 465.69 420.893 465.69C417.243 465.69 414.115 464.509 411.509 462.148C408.902 459.756 407.599 456.904 407.599 453.592ZM411.003 453.638C411.003 455.815 411.999 457.809 413.993 459.618C415.986 461.397 418.301 462.286 420.939 462.286C423.423 462.286 425.539 461.381 427.287 459.572C429.065 457.763 429.955 455.754 429.955 453.546C429.955 451.399 429.111 449.391 427.425 447.52C425.738 445.649 423.561 444.714 420.893 444.714C417.765 444.714 415.327 445.665 413.579 447.566C411.861 449.467 411.003 451.491 411.003 453.638ZM437.855 463.804V443.242C437.855 442.843 438.008 442.537 438.315 442.322C438.652 442.107 439.051 442 439.511 442C440.676 442 441.259 442.414 441.259 443.242V446.876C442.792 445.22 444.647 443.917 446.825 442.966C449.002 441.985 451.21 441.494 453.449 441.494C456.331 441.494 458.739 442.399 460.671 444.208C462.633 445.987 463.615 448.317 463.615 451.2C463.615 451.476 463.599 452.887 463.569 455.432C463.569 457.947 463.569 460.707 463.569 463.712C463.569 464.111 463.4 464.433 463.063 464.678C462.725 464.893 462.327 465 461.867 465C460.732 465 460.165 464.571 460.165 463.712V451.614C460.165 449.437 459.383 447.765 457.819 446.6C456.285 445.435 454.691 444.852 453.035 444.852C450.796 444.852 448.496 445.603 446.135 447.106C443.804 448.578 442.179 450.449 441.259 452.718V463.804C441.259 464.632 440.676 465.046 439.511 465.046C439.051 465.046 438.652 464.939 438.315 464.724C438.008 464.509 437.855 464.203 437.855 463.804ZM478.936 460.63C478.936 460.231 479.104 459.802 479.442 459.342C479.81 458.882 480.224 458.591 480.684 458.468C480.898 458.468 481.006 458.499 481.006 458.56C481.987 459.633 483.398 460.477 485.238 461.09C487.078 461.673 488.519 462.01 489.562 462.102C490.635 462.194 491.632 462.24 492.552 462.24C496.538 462.24 498.532 461.029 498.532 458.606C498.532 457.778 498.225 457.119 497.612 456.628C497.029 456.107 496.216 455.754 495.174 455.57C494.162 455.386 493.134 455.263 492.092 455.202C491.049 455.141 489.914 455.095 488.688 455.064C487.461 455.003 486.526 454.911 485.882 454.788C484.134 454.451 482.585 453.745 481.236 452.672C479.886 451.568 479.212 450.28 479.212 448.808C479.212 446.477 480.377 444.699 482.708 443.472C485.069 442.215 487.66 441.586 490.482 441.586C492.383 441.586 494.422 441.923 496.6 442.598C498.777 443.242 500.402 444.254 501.476 445.634C501.506 445.695 501.522 445.772 501.522 445.864C501.522 446.263 501.338 446.738 500.97 447.29C500.602 447.811 500.249 448.072 499.912 448.072C499.605 448.072 499.298 447.827 498.992 447.336C497.52 445.772 494.591 444.99 490.206 444.99C488.396 444.99 486.679 445.297 485.054 445.91C483.428 446.523 482.616 447.428 482.616 448.624C482.616 449.636 483.321 450.403 484.732 450.924C486.142 451.415 487.645 451.66 489.24 451.66C490.374 451.66 491.325 451.675 492.092 451.706C492.858 451.737 493.794 451.829 494.898 451.982C496.002 452.105 496.922 452.335 497.658 452.672C498.394 452.979 499.114 453.393 499.82 453.914C500.525 454.405 501.046 455.079 501.384 455.938C501.752 456.766 501.936 457.747 501.936 458.882C501.936 460.446 501.445 461.765 500.464 462.838C499.513 463.881 498.409 464.601 497.152 465C495.925 465.429 494.622 465.644 493.242 465.644C486.771 465.644 482.11 464.264 479.258 461.504C479.043 461.289 478.936 460.998 478.936 460.63ZM505.528 456.628C505.528 452.519 507.138 448.977 510.358 446.002C513.578 443.027 517.228 441.54 521.306 441.54C524.097 441.54 526.474 442.598 528.436 444.714C530.399 446.83 531.38 449.237 531.38 451.936L531.334 463.988C531.334 464.387 531.135 464.709 530.736 464.954C530.368 465.169 529.954 465.276 529.494 465.276C528.482 465.276 527.976 464.847 527.976 463.988V456.214C525.492 459.434 523.116 461.765 520.846 463.206C518.608 464.647 516.292 465.368 513.9 465.368C511.692 465.368 509.745 464.479 508.058 462.7C506.372 460.891 505.528 458.867 505.528 456.628ZM508.84 456.72C508.84 458.468 509.454 459.802 510.68 460.722C511.907 461.611 513.21 462.056 514.59 462.056C516.185 462.056 518.01 461.274 520.064 459.71C522.119 458.115 523.821 456.352 525.17 454.42C526.55 452.457 527.24 450.924 527.24 449.82C527.24 448.9 526.964 448.087 526.412 447.382C525.891 446.646 525.232 446.109 524.434 445.772C523.668 445.435 522.962 445.189 522.318 445.036C521.674 444.852 521.138 444.76 520.708 444.76C517.703 444.76 514.974 445.971 512.52 448.394C510.067 450.786 508.84 453.561 508.84 456.72ZM536.548 463.712V431.742C536.548 430.914 537.131 430.5 538.296 430.5C538.756 430.5 539.139 430.607 539.446 430.822C539.783 431.037 539.952 431.343 539.952 431.742V463.712C539.952 464.111 539.783 464.433 539.446 464.678C539.109 464.893 538.71 465 538.25 465C537.115 465 536.548 464.571 536.548 463.712ZM544.476 452.856C544.476 450.893 544.905 449.145 545.764 447.612C546.622 446.079 547.757 444.867 549.168 443.978C550.578 443.089 552.096 442.429 553.722 442C555.347 441.54 557.003 441.31 558.69 441.31C561.695 441.31 564.026 441.969 565.682 443.288C567.338 444.576 568.166 446.171 568.166 448.072C568.166 450.127 567.2 451.875 565.268 453.316C563.336 454.757 560.591 455.478 557.034 455.478C553.844 455.478 550.808 455.018 547.926 454.098C548.263 456.367 549.321 458.269 551.1 459.802C552.878 461.335 555.071 462.102 557.678 462.102C559.058 462.102 560.484 461.887 561.956 461.458C563.458 461.029 564.639 460.415 565.498 459.618C565.62 459.373 565.866 459.25 566.234 459.25C566.663 459.25 567.123 459.449 567.614 459.848C568.104 460.216 568.35 460.599 568.35 460.998C567.583 462.562 566.08 463.712 563.842 464.448C561.634 465.153 559.487 465.506 557.402 465.506C553.63 465.506 550.532 464.264 548.11 461.78C545.687 459.296 544.476 456.321 544.476 452.856ZM548.11 450.556C550.41 451.568 553.262 452.074 556.666 452.074C559.334 452.074 561.358 451.66 562.738 450.832C564.118 449.973 564.808 449.023 564.808 447.98C564.808 447.06 564.225 446.293 563.06 445.68C561.925 445.036 560.223 444.714 557.954 444.714C555.5 444.714 553.446 445.266 551.79 446.37C550.164 447.443 548.938 448.839 548.11 450.556Z" fill="#565656"/>
</g>
<defs>
<filter id="filter0_b_2_2" x="-4" y="-4" width="655.636" height="640.174" filterUnits="userSpaceOnUse" color-interpolation-filters="sRGB">
<feFlood flood-opacity="0" result="BackgroundImageFix"/>
<feGaussianBlur in="BackgroundImage" stdDeviation="2"/>
<feComposite in2="SourceAlpha" operator="in" result="effect1_backgroundBlur_2_2"/>
<feBlend mode="normal" in="SourceGraphic" in2="effect1_backgroundBlur_2_2" result="shape"/>
</filter>
<clipPath id="clip0_2_2">
<rect width="647.636" height="632.174" fill="white"/>
</clipPath>
</defs>
</svg>
