<svg class="border shadow-md" viewBox="0 0 604.5600000000001 604.5600000000001" style="width: 604.56px; height: 604.56px;" xmlns="http://www.w3.org/2000/svg" preserveAspectRatio="none"><rect class="bg" id="bg" x="0" y="0" width="604.5600000000001" height="604.5600000000001" fill="#ffffff"/><path d="M 0 -60.456 L 0 -60.46&#10;            L 48.00 -30.23&#10;            L 120.912 -60.46 L 120.912 -60.46&#10;            L 161.22 -1.46&#10;            L 241.824 -60.46 L 241.824 -60.46&#10;            L 291.82 -14.46&#10;            L 362.736 -60.46 L 362.736 -60.46&#10;            L 409.74 -0.46&#10;            L 483.648 -60.46 L 483.648 -60.46&#10;            L 523.95 -19.46&#10;            L 604.5600000000001 -60.46 L 604.5600000000001 -60.46&#10;            L 644.86 -30.23&#10;            L 725.4720000000001 -60.46  V 604.56 H 0 V -60.46 Z" fill="#368F8B"/><path d="M 0 0 L 0 0.00&#10;            L 73.00 40.00&#10;            L 120.912 0.00 L 120.912 0.00&#10;            L 161.22 34.00&#10;            L 241.824 0.00 L 241.824 0.00&#10;            L 282.13 50.00&#10;            L 362.736 0.00 L 362.736 0.00&#10;            L 427.74 30.23&#10;            L 483.648 0.00 L 483.648 0.00&#10;            L 523.95 30.23&#10;            L 604.5600000000001 0.00 L 604.5600000000001 0.00&#10;            L 644.86 30.23&#10;            L 725.4720000000001 0.00  V 604.56 H 0 V 0.00 Z" fill="#318585"/><path d="M 0 60.456 L 0 60.46&#10;            L 40.30 90.68&#10;            L 120.912 60.46 L 120.912 60.46&#10;            L 201.91 110.46&#10;            L 241.824 60.46 L 241.824 60.46&#10;            L 294.82 90.68&#10;            L 362.736 60.46 L 362.736 60.46&#10;            L 416.74 102.46&#10;            L 483.648 60.46 L 483.648 60.46&#10;            L 572.65 90.68&#10;            L 604.5600000000001 60.46 L 604.5600000000001 60.46&#10;            L 644.86 90.68&#10;            L 725.4720000000001 60.46  V 604.56 H 0 V 60.46 Z" fill="#2c7b7f"/><path d="M 0 120.912 L 0 120.91&#10;            L 40.30 175.91&#10;            L 120.912 120.91 L 120.912 120.91&#10;            L 161.22 167.91&#10;            L 241.824 120.91 L 241.824 120.91&#10;            L 320.82 151.14&#10;            L 362.736 120.91 L 362.736 120.91&#10;            L 441.74 170.91&#10;            L 483.648 120.91 L 483.648 120.91&#10;            L 523.95 151.14&#10;            L 604.5600000000001 120.91 L 604.5600000000001 120.91&#10;            L 644.86 151.14&#10;            L 725.4720000000001 120.91  V 604.56 H 0 V 120.91 Z" fill="#277179"/><path d="M 0 181.368 L 0 181.37&#10;            L 73.00 211.60&#10;            L 120.912 181.37 L 120.912 181.37&#10;            L 178.91 237.37&#10;            L 241.824 181.37 L 241.824 181.37&#10;            L 282.13 211.60&#10;            L 362.736 181.37 L 362.736 181.37&#10;            L 421.74 238.37&#10;            L 483.648 181.37 L 483.648 181.37&#10;            L 566.65 211.60&#10;            L 604.5600000000001 181.37 L 604.5600000000001 181.37&#10;            L 644.86 215.37&#10;            L 725.4720000000001 181.37  V 604.56 H 0 V 181.37 Z" fill="#226773"/><path d="M 0 241.824 L 0 241.82&#10;            L 76.00 298.82&#10;            L 120.912 241.82 L 120.912 241.82&#10;            L 161.22 288.82&#10;            L 241.824 241.82 L 241.824 241.82&#10;            L 320.82 285.82&#10;            L 362.736 241.82 L 362.736 241.82&#10;            L 429.74 288.82&#10;            L 483.648 241.82 L 483.648 241.82&#10;            L 526.65 291.82&#10;            L 604.5600000000001 241.82 L 604.5600000000001 241.82&#10;            L 650.56 272.05&#10;            L 725.4720000000001 241.82  V 604.56 H 0 V 241.82 Z" fill="#1d5d6d"/><path d="M 0 302.28000000000003 L 0 302.28&#10;            L 40.30 338.28&#10;            L 120.912 302.28 L 120.912 302.28&#10;            L 208.91 362.28&#10;            L 241.824 302.28 L 241.824 302.28&#10;            L 282.13 332.51&#10;            L 362.736 302.28 L 362.736 302.28&#10;            L 403.04 332.51&#10;            L 483.648 302.28 L 483.648 302.28&#10;            L 523.95 332.51&#10;            L 604.5600000000001 302.28 L 604.5600000000001 302.28&#10;            L 644.86 332.51&#10;            L 725.4720000000001 302.28  V 604.56 H 0 V 302.28 Z" fill="#185367"/><path d="M 0 362.736 L 0 362.74&#10;            L 70.00 416.74&#10;            L 120.912 362.74 L 120.912 362.74&#10;            L 161.22 404.74&#10;            L 241.824 362.74 L 241.824 362.74&#10;            L 282.13 419.74&#10;            L 362.736 362.74 L 362.736 362.74&#10;            L 403.04 392.96&#10;            L 483.648 362.74 L 483.648 362.74&#10;            L 530.65 392.96&#10;            L 604.5600000000001 362.74 L 604.5600000000001 362.74&#10;            L 644.86 392.96&#10;            L 725.4720000000001 362.74  V 604.56 H 0 V 362.74 Z" fill="#134961"/><path d="M 0 423.192 L 0 423.19&#10;            L 40.30 453.42&#10;            L 120.912 423.19 L 120.912 423.19&#10;            L 169.91 453.42&#10;            L 241.824 423.19 L 241.824 423.19&#10;            L 282.13 453.42&#10;            L 362.736 423.19 L 362.736 423.19&#10;            L 424.74 453.42&#10;            L 483.648 423.19 L 483.648 423.19&#10;            L 523.95 463.19&#10;            L 604.5600000000001 423.19 L 604.5600000000001 423.19&#10;            L 644.86 453.42&#10;            L 725.4720000000001 423.19  V 604.56 H 0 V 423.19 Z" fill="#0e3f5b"/><path d="M 0 483.648 L 0 483.65&#10;            L 40.30 523.65&#10;            L 120.912 483.65 L 120.912 483.65&#10;            L 161.22 513.88&#10;            L 241.824 483.65 L 241.824 483.65&#10;            L 282.13 515.65&#10;            L 362.736 483.65 L 362.736 483.65&#10;            L 435.74 513.88&#10;            L 483.648 483.65 L 483.648 483.65&#10;            L 530.65 542.65&#10;            L 604.5600000000001 483.65 L 604.5600000000001 483.65&#10;            L 648.56 540.65&#10;            L 725.4720000000001 483.65  V 604.56 H 0 V 483.65 Z" fill="#093555"/><path d="M 0 544.104 L 0 544.10&#10;            L 55.00 574.33&#10;            L 120.912 544.10 L 120.912 544.10&#10;            L 161.22 598.10&#10;            L 241.824 544.10 L 241.824 544.10&#10;            L 282.13 583.10&#10;            L 362.736 544.10 L 362.736 544.10&#10;            L 434.74 574.33&#10;            L 483.648 544.10 L 483.648 544.10&#10;            L 562.65 574.33&#10;            L 604.5600000000001 544.10 L 604.5600000000001 544.10&#10;            L 644.86 591.10&#10;            L 725.4720000000001 544.10  V 604.56 H 0 V 544.10 Z" fill="#042b4f"/></svg>