<svg width="735" height="558" viewBox="0 0 735 558" fill="none" xmlns="http://www.w3.org/2000/svg">
<g filter="url(#filter0_i_1_37)">
<path d="M577.553 393.513V390.982H560.636C557.865 390.978 555.21 390.018 553.251 388.313C551.292 386.607 550.19 384.294 550.186 381.881V337.418H506.773V339.95C506.773 340.937 506.468 438.976 506.773 465.378V471.63L511.714 467.099C527.513 452.62 547.003 452.43 565.839 452.253C568.746 452.253 571.798 452.253 574.719 452.101L577.481 452.025V449.608C577.858 427.876 577.553 393.855 577.553 393.513ZM574.646 449.608C553.311 450.253 528.893 447.76 509.636 465.391C509.331 438.697 509.636 340 509.636 340H547.25V381.907C547.25 383.434 547.595 384.947 548.267 386.358C548.938 387.769 549.922 389.051 551.162 390.131C552.402 391.212 553.875 392.068 555.495 392.653C557.116 393.237 558.853 393.538 560.607 393.538H574.646C574.646 393.538 574.952 427.61 574.646 449.608Z" fill="#74BAAB"/>
<path d="M605.241 330.356C607.246 323.306 609.703 314.408 612.348 304.612C614.04 298.329 618.118 292.728 623.921 288.715C629.724 284.702 636.912 282.513 644.322 282.501H692.125C701.163 282.495 709.968 280 717.278 275.371C724.588 270.742 730.028 264.217 732.82 256.732C731.73 256.732 730.625 256.795 729.448 256.795C700.046 256.795 700.046 243.075 670.658 243.075C641.27 243.075 641.343 256.795 611.883 256.795C582.422 256.795 582.495 243.075 553.093 243.075C523.69 243.075 523.705 256.795 494.303 256.795C464.9 256.795 464.9 243.075 435.513 243.075C406.125 243.075 406.11 256.795 376.723 256.795C347.335 256.795 347.364 243.075 317.991 243.075C288.618 243.075 288.589 256.795 259.201 256.795C229.813 256.795 229.798 243.075 200.411 243.075C171.023 243.075 171.023 256.795 141.621 256.795C112.218 256.795 112.233 243.075 82.8453 243.075C53.4575 243.075 53.4575 256.795 24.0552 256.795C16.744 256.965 9.47226 255.806 2.70479 253.39C1.11745 258.653 0.316298 264.073 0.321189 269.515C0.321189 403.183 148.394 508.12 301.902 508.12H411.401C446.093 508.12 479.364 496.118 503.894 474.756C528.425 453.394 542.207 424.42 542.207 394.209C542.207 375.882 561.101 364.719 580.3 359.314C600.895 353.53 600.532 346.81 605.241 330.356Z" fill="#74BAAB"/>
<path d="M324.11 0.432434C308.494 0.432434 293.519 5.83435 282.477 15.4498C271.435 25.0653 265.232 38.1066 265.232 51.7049V102.56H304.62V51.7049C304.623 47.2045 306.678 42.8894 310.332 39.7071C313.987 36.5248 318.942 34.7356 324.11 34.7322C328.35 34.7322 332.416 33.2654 335.414 30.6544C338.413 28.0435 340.097 24.5023 340.097 20.8098V14.2916C340.078 10.6101 338.385 7.08511 335.389 4.48782C332.393 1.89053 328.337 0.432396 324.11 0.432434Z" fill="#FFF3A1"/>
<path d="M24.0406 256.795C53.4429 256.795 53.4429 243.075 82.8307 243.075C112.218 243.075 112.233 256.795 141.621 256.795C171.008 256.795 171.023 243.075 200.411 243.075C229.798 243.075 229.798 256.795 259.201 256.795C288.603 256.795 288.588 243.075 317.991 243.075C347.393 243.075 347.364 256.795 376.781 256.795C406.197 256.795 406.168 243.075 435.571 243.075C464.973 243.075 464.958 256.795 494.361 256.795C523.763 256.795 523.763 243.075 553.151 243.075C582.538 243.075 582.553 256.795 611.941 256.795C641.328 256.795 641.343 243.075 670.745 243.075C700.148 243.075 700.133 256.795 729.535 256.795C730.712 256.795 731.817 256.795 732.907 256.731C734.294 253.016 735 249.133 735 245.227V156.553C735 152.222 733.04 148.066 729.543 144.985C726.047 141.905 721.297 140.15 716.324 140.1C701.676 140.052 687.302 143.556 674.811 150.22C662.32 156.884 652.206 166.444 645.601 177.829L641.401 185.094C637.684 191.482 632.008 196.849 625.001 200.597C617.994 204.346 609.932 206.331 601.709 206.332H441.544C438.45 206.332 435.387 205.802 432.528 204.771C429.67 203.74 427.073 202.228 424.885 200.323C422.697 198.418 420.962 196.156 419.778 193.667C418.594 191.178 417.985 188.51 417.985 185.816V178.576C417.985 147.681 405.732 123.874 365.226 108.268C347.69 101.725 329.228 97.2516 310.331 94.9656C268.575 89.7511 228.316 93.1557 228.316 129.886V181.196C228.312 187.864 225.268 194.257 219.852 198.971C214.437 203.684 207.094 206.332 199.437 206.332H72.8458C56.8277 206.334 41.2602 210.95 28.5701 219.462C15.88 227.974 6.78053 239.903 2.69019 253.39C9.45766 255.806 16.7294 256.965 24.0406 256.795Z" fill="#FFF3A1"/>
<path d="M323.412 31.0111C319.734 31.0044 316.21 29.7284 313.611 27.4627C311.012 25.197 309.55 22.1264 309.546 18.9239V16.0508C309.663 12.9145 311.176 9.94055 313.765 7.75784C316.354 5.57513 319.816 4.35474 323.419 4.35474C327.023 4.35474 330.485 5.57513 333.074 7.75784C335.663 9.94055 337.175 12.9145 337.292 16.0508V18.9239C337.288 22.1286 335.824 25.2011 333.222 27.4672C330.62 29.7332 327.092 31.0078 323.412 31.0111ZM323.412 6.50767C320.507 6.51102 317.722 7.51753 315.667 9.3065C313.613 11.0955 312.457 13.5209 312.453 16.0508V18.9239C312.4 20.2072 312.644 21.4868 313.17 22.6862C313.697 23.8856 314.497 24.9802 315.52 25.9046C316.544 26.829 317.771 27.5643 319.128 28.0665C320.485 28.5687 321.945 28.8275 323.419 28.8275C324.894 28.8275 326.353 28.5687 327.711 28.0665C329.068 27.5643 330.295 26.829 331.318 25.9046C332.342 24.9802 333.141 23.8856 333.668 22.6862C334.195 21.4868 334.439 20.2072 334.385 18.9239V16.0508C334.381 13.5187 333.223 11.0914 331.166 9.30204C329.109 7.51271 326.32 6.50767 323.412 6.50767Z" fill="#274D76"/>
<path d="M620.356 281.577C620.245 281.589 620.133 281.589 620.022 281.577C597.16 276.387 583.527 261.832 583.527 242.645V239.29C583.501 232.984 585.184 226.762 588.439 221.128C591.316 216.163 595.579 211.907 600.837 208.75C601.124 208.609 601.461 208.568 601.781 208.634C602.101 208.701 602.381 208.87 602.564 209.108C602.748 209.346 602.821 209.635 602.771 209.918C602.72 210.202 602.548 210.458 602.29 210.636C597.396 213.572 593.428 217.533 590.75 222.153C587.684 227.47 586.096 233.341 586.114 239.29V242.645C586.114 260.997 598.7 274.375 620.661 279.349C620.96 279.428 621.218 279.597 621.387 279.826C621.557 280.055 621.628 280.329 621.588 280.599C621.548 280.869 621.399 281.118 621.168 281.301C620.937 281.485 620.639 281.592 620.327 281.602L620.356 281.577Z" fill="black"/>
<path d="M724.405 195.27H688.462C681.048 195.277 673.94 197.845 668.698 202.41C663.455 206.976 660.507 213.166 660.499 219.622V272.084C660.499 272.386 660.637 272.676 660.882 272.89C661.127 273.103 661.46 273.223 661.807 273.223C662.154 273.223 662.487 273.103 662.732 272.89C662.977 272.676 663.115 272.386 663.115 272.084V219.622C663.127 213.772 665.801 208.165 670.553 204.029C675.304 199.894 681.745 197.568 688.462 197.561H724.405C724.589 197.578 724.776 197.561 724.952 197.511C725.128 197.461 725.291 197.38 725.428 197.272C725.566 197.164 725.676 197.032 725.752 196.884C725.827 196.737 725.866 196.577 725.866 196.416C725.866 196.254 725.827 196.095 725.752 195.947C725.676 195.8 725.566 195.668 725.428 195.56C725.291 195.452 725.128 195.37 724.952 195.32C724.776 195.27 724.589 195.253 724.405 195.27Z" fill="black"/>
<path d="M382.87 127.81H237.589V130.341H382.87V127.81Z" fill="#274D76"/>
<path d="M400.486 150.25H239.623V152.782H400.486V150.25Z" fill="#274D76"/>
<path d="M423.871 205.067H224.813V207.598H423.871V205.067Z" fill="#274D76"/>
<path d="M313.442 408.638C299.759 408.638 286.383 405.104 275.006 398.484C263.629 391.864 254.762 382.455 249.526 371.447C244.29 360.438 242.92 348.325 245.589 336.638C248.259 324.952 254.847 314.217 264.523 305.791C274.198 297.366 286.525 291.628 299.945 289.303C313.365 286.979 327.275 288.172 339.916 292.731C352.558 297.291 363.363 305.013 370.964 314.921C378.566 324.828 382.624 336.476 382.624 348.392C382.6 364.364 375.304 379.676 362.335 390.97C349.366 402.264 331.783 408.618 313.442 408.638ZM313.442 290.677C300.334 290.677 287.52 294.062 276.621 300.404C265.722 306.745 257.228 315.759 252.212 326.305C247.195 336.851 245.883 348.456 248.44 359.651C250.997 370.847 257.309 381.131 266.578 389.202C275.847 397.274 287.656 402.77 300.512 404.997C313.368 407.224 326.694 406.081 338.804 401.713C350.914 397.345 361.265 389.947 368.547 380.456C375.83 370.965 379.717 359.806 379.717 348.392C379.697 333.09 372.709 318.42 360.284 307.6C347.859 296.78 331.013 290.694 313.442 290.677Z" fill="white"/>
<path d="M313.442 377.983C332.208 377.983 347.422 364.735 347.422 348.392C347.422 332.049 332.208 318.8 313.442 318.8C294.675 318.8 279.461 332.049 279.461 348.392C279.461 364.735 294.675 377.983 313.442 377.983Z" fill="#274D76"/>
<path d="M368.941 349.362C369.603 345.773 366.798 342.396 362.677 341.82C358.556 341.244 354.679 343.687 354.017 347.275C353.356 350.864 356.16 354.241 360.281 354.817C364.403 355.393 368.28 352.951 368.941 349.362Z" fill="white"/>
<path d="M269.459 349.368C270.121 345.779 267.316 342.403 263.195 341.826C259.074 341.25 255.197 343.693 254.535 347.282C253.873 350.871 256.678 354.247 260.799 354.823C264.92 355.399 268.798 352.957 269.459 349.368Z" fill="white"/>
<path d="M160.588 394.804C150.047 394.804 139.742 392.082 130.978 386.982C122.213 381.882 115.382 374.634 111.348 366.153C107.314 357.672 106.259 348.34 108.315 339.337C110.372 330.334 115.448 322.064 122.901 315.573C130.355 309.082 139.852 304.662 150.19 302.871C160.528 301.08 171.244 301.999 180.983 305.512C190.722 309.025 199.045 314.974 204.902 322.606C210.758 330.239 213.884 339.212 213.884 348.392C213.868 360.697 208.248 372.494 198.257 381.195C188.265 389.896 174.718 394.791 160.588 394.804ZM160.588 304.511C150.621 304.511 140.879 307.084 132.593 311.906C124.306 316.728 117.848 323.581 114.034 331.599C110.22 339.617 109.222 348.44 111.166 356.952C113.111 365.464 117.91 373.283 124.957 379.42C132.004 385.557 140.982 389.736 150.757 391.429C160.532 393.123 170.663 392.254 179.871 388.932C189.078 385.611 196.948 379.987 202.485 372.771C208.022 365.554 210.977 357.07 210.977 348.392C210.961 336.758 205.648 325.604 196.201 317.378C186.755 309.152 173.947 304.524 160.588 304.511Z" fill="white"/>
<path d="M178.977 364.41C189.137 355.563 189.137 341.218 178.977 332.37C168.817 323.523 152.345 323.523 142.185 332.37C132.025 341.218 132.025 355.563 142.185 364.41C152.345 373.258 168.817 373.258 178.977 364.41Z" fill="#274D76"/>
<path d="M203.114 348.328C203.114 349.33 202.773 350.308 202.134 351.141C201.495 351.974 200.588 352.622 199.525 353.006C198.463 353.389 197.294 353.489 196.166 353.294C195.039 353.098 194.003 352.616 193.19 351.908C192.377 351.2 191.823 350.298 191.599 349.316C191.374 348.334 191.489 347.316 191.929 346.391C192.369 345.466 193.115 344.675 194.071 344.119C195.027 343.563 196.151 343.266 197.3 343.266C198.842 343.266 200.321 343.799 201.411 344.748C202.502 345.698 203.114 346.986 203.114 348.328Z" fill="white"/>
<path d="M126.97 348.328C126.97 349.33 126.629 350.308 125.991 351.141C125.352 351.974 124.444 352.622 123.382 353.006C122.319 353.389 121.15 353.489 120.023 353.294C118.895 353.098 117.859 352.616 117.046 351.908C116.233 351.2 115.679 350.298 115.455 349.316C115.231 348.334 115.346 347.316 115.786 346.391C116.226 345.466 116.971 344.675 117.927 344.119C118.883 343.563 120.007 343.266 121.157 343.266C122.699 343.266 124.177 343.799 125.268 344.748C126.358 345.698 126.97 346.986 126.97 348.328Z" fill="white"/>
<path d="M463.113 394.804C452.572 394.804 442.267 392.082 433.503 386.982C424.738 381.882 417.907 374.634 413.873 366.153C409.84 357.672 408.784 348.34 410.841 339.337C412.897 330.334 417.973 322.064 425.427 315.573C432.88 309.082 442.377 304.662 452.715 302.871C463.053 301.08 473.77 301.999 483.508 305.512C493.247 309.025 501.571 314.974 507.427 322.606C513.283 330.239 516.409 339.212 516.409 348.392C516.393 360.697 510.773 372.494 500.782 381.195C490.79 389.896 477.243 394.791 463.113 394.804ZM463.113 304.511C453.147 304.511 443.404 307.084 435.118 311.906C426.831 316.728 420.373 323.581 416.559 331.599C412.745 339.617 411.747 348.44 413.691 356.952C415.636 365.464 420.435 373.283 427.482 379.42C434.529 385.557 443.508 389.736 453.282 391.429C463.057 393.123 473.188 392.254 482.396 388.932C491.603 385.611 499.473 379.987 505.01 372.771C510.547 365.554 513.502 357.07 513.502 348.392C513.487 336.758 508.173 325.604 498.726 317.378C489.28 309.152 476.472 304.524 463.113 304.511Z" fill="white"/>
<path d="M481.508 364.405C491.668 355.557 491.668 341.212 481.508 332.365C471.348 323.517 454.876 323.517 444.716 332.365C434.556 341.213 434.556 355.557 444.716 364.405C454.876 373.252 471.348 373.252 481.508 364.405Z" fill="#274D76"/>
<path d="M505.639 348.328C505.639 349.33 505.298 350.308 504.659 351.141C504.02 351.974 503.113 352.622 502.05 353.006C500.988 353.389 499.819 353.489 498.691 353.294C497.564 353.098 496.528 352.616 495.715 351.908C494.902 351.2 494.348 350.298 494.124 349.316C493.899 348.334 494.014 347.316 494.454 346.391C494.894 345.466 495.64 344.675 496.596 344.119C497.552 343.563 498.676 343.266 499.826 343.266C501.367 343.266 502.846 343.799 503.936 344.748C505.027 345.698 505.639 346.986 505.639 348.328Z" fill="white"/>
<path d="M429.496 348.328C429.496 349.33 429.155 350.308 428.516 351.141C427.877 351.974 426.969 352.622 425.907 353.006C424.844 353.389 423.675 353.489 422.548 353.294C421.42 353.098 420.384 352.616 419.571 351.908C418.758 351.2 418.204 350.298 417.98 349.316C417.756 348.334 417.871 347.316 418.311 346.391C418.751 345.466 419.496 344.675 420.452 344.119C421.408 343.563 422.532 343.266 423.682 343.266C425.224 343.266 426.703 343.799 427.793 344.748C428.883 345.698 429.496 346.986 429.496 348.328Z" fill="white"/>
<path d="M90.3157 224.356H87.4089V403.512H90.3157V224.356Z" fill="white"/>
<path d="M304.75 495.425C297.932 495.425 291.267 497.186 285.597 500.485C279.928 503.783 275.509 508.472 272.9 513.958C270.29 519.444 269.608 525.48 270.938 531.304C272.268 537.127 275.552 542.477 280.373 546.675C285.194 550.874 291.337 553.733 298.025 554.892C304.712 556.05 311.644 555.456 317.943 553.183C324.243 550.911 329.627 547.063 333.415 542.126C337.203 537.189 339.225 531.385 339.225 525.447C339.225 517.485 335.593 509.848 329.127 504.218C322.662 498.588 313.893 495.425 304.75 495.425ZM304.75 538.711C301.738 538.711 298.793 537.933 296.288 536.476C293.783 535.018 291.831 532.947 290.678 530.523C289.525 528.099 289.224 525.432 289.811 522.859C290.399 520.286 291.85 517.923 293.98 516.068C296.11 514.213 298.824 512.949 301.779 512.437C304.733 511.926 307.796 512.188 310.579 513.192C313.362 514.196 315.741 515.896 317.415 518.078C319.089 520.259 319.982 522.823 319.982 525.447C319.966 528.956 318.355 532.317 315.5 534.793C312.645 537.27 308.78 538.66 304.75 538.66V538.711Z" fill="#274D76"/>
<path d="M304.75 492.894C297.357 492.894 290.13 494.803 283.982 498.38C277.835 501.957 273.044 507.041 270.214 512.989C267.385 518.938 266.645 525.483 268.087 531.798C269.53 538.112 273.09 543.913 278.318 548.465C283.546 553.018 290.206 556.118 297.458 557.375C304.709 558.631 312.225 557.986 319.056 555.522C325.886 553.058 331.724 548.886 335.832 543.532C339.939 538.179 342.132 531.885 342.132 525.447C342.12 516.816 338.178 508.542 331.17 502.439C324.162 496.337 314.661 492.904 304.75 492.894ZM304.75 555.469C297.932 555.469 291.267 553.708 285.597 550.409C279.928 547.11 275.509 542.421 272.9 536.936C270.291 531.45 269.608 525.413 270.938 519.59C272.268 513.766 275.552 508.417 280.373 504.218C285.194 500.02 291.337 497.16 298.025 496.002C304.712 494.843 311.644 495.438 317.943 497.71C324.243 499.983 329.627 503.831 333.415 508.768C337.203 513.705 339.225 519.509 339.225 525.447C339.225 533.409 335.593 541.045 329.128 546.675C322.662 552.306 313.894 555.469 304.75 555.469Z" fill="#74BAAB"/>
<path d="M304.75 512.183C301.738 512.183 298.793 512.961 296.288 514.418C293.783 515.876 291.831 517.947 290.678 520.371C289.525 522.795 289.224 525.462 289.811 528.035C290.399 530.608 291.85 532.971 293.98 534.826C296.11 536.681 298.824 537.944 301.779 538.456C304.733 538.968 307.796 538.705 310.579 537.701C313.362 536.697 315.741 534.997 317.415 532.816C319.089 530.635 319.982 528.07 319.982 525.447C319.982 521.929 318.377 518.555 315.521 516.068C312.664 513.58 308.79 512.183 304.75 512.183ZM304.75 536.23C302.313 536.23 299.93 535.601 297.903 534.422C295.876 533.242 294.297 531.566 293.364 529.605C292.431 527.644 292.187 525.486 292.662 523.404C293.138 521.322 294.312 519.409 296.035 517.908C297.759 516.407 299.955 515.385 302.346 514.971C304.737 514.557 307.215 514.769 309.467 515.582C311.719 516.394 313.644 517.77 314.998 519.535C316.352 521.3 317.075 523.375 317.075 525.497C317.041 528.325 315.728 531.028 313.42 533.018C311.113 535.008 307.998 536.126 304.75 536.129V536.23Z" fill="#74BAAB"/>
<path d="M598.802 420.953C598.802 396.399 606.243 376.502 615.414 376.502H579.762C570.592 376.502 563.15 396.399 563.15 420.953C563.15 445.507 570.592 465.391 579.762 465.391H615.414C606.273 465.391 598.802 445.494 598.802 420.953Z" fill="#74BAAB"/>
<path d="M607.813 411.359C609.267 411.359 614.47 412.941 617.144 418.877C622.187 415.523 622.958 404.398 622.958 402.638C622.783 392.981 619.208 385.792 615.604 385.944C611.345 386.109 607.188 395.842 607.741 409.435C607.741 410.131 607.784 410.827 607.813 411.359ZM607.959 414.89C605.401 421.624 606.607 448.431 611.592 454.67C613.046 456.404 615.124 456.809 616.257 454.873C619.164 449.886 620.298 437.773 618.656 427.091C617.144 417.282 609.761 414.814 607.959 414.89ZM621.606 416.017C621.17 417.686 620.289 419.243 619.034 420.56C624.149 434.673 620.763 442.684 620.763 442.684C620.763 442.684 627.1 441.798 627.173 430.787C627.231 422.813 625.225 417.662 621.606 416.017Z" fill="#93B4F6"/>
</g>
<defs>
<filter id="filter0_i_1_37" x="0.321167" y="0.432434" width="734.679" height="561.568" filterUnits="userSpaceOnUse" color-interpolation-filters="sRGB">
<feFlood flood-opacity="0" result="BackgroundImageFix"/>
<feBlend mode="normal" in="SourceGraphic" in2="BackgroundImageFix" result="shape"/>
<feColorMatrix in="SourceAlpha" type="matrix" values="0 0 0 0 0 0 0 0 0 0 0 0 0 0 0 0 0 0 127 0" result="hardAlpha"/>
<feOffset dy="4"/>
<feGaussianBlur stdDeviation="2"/>
<feComposite in2="hardAlpha" operator="arithmetic" k2="-1" k3="1"/>
<feColorMatrix type="matrix" values="0 0 0 0 0 0 0 0 0 0 0 0 0 0 0 0 0 0 0.25 0"/>
<feBlend mode="normal" in2="shape" result="effect1_innerShadow_1_37"/>
</filter>
</defs>
</svg>
