<svg class="border shadow-md" viewBox="0 0 604.5600000000001 604.5600000000001" style="width: 604.56px; height: 604.56px;" xmlns="http://www.w3.org/2000/svg" preserveAspectRatio="none"><rect class="bg" id="bg" x="0" y="0" width="604.5600000000001" height="604.5600000000001" fill="#ffffff"/><path d="M -10 -46.50461538461539 S -100.76 -85.50&#10;            0.00 -46.50 100.76 -69.76&#10;            201.52 -46.50 302.28 -75.50&#10;            403.04 -46.50 410.56 -75.50&#10;            604.56 -46.50 634.08 -92.50&#10;            806.08 -46.50 V 604.56 H 0 V -46.50 Z" fill="#368F8B"/><path d="M -10 0 S -145.00 -37.00&#10;            0.00 0.00 79.52 -42.00&#10;            201.52 0.00 249.04 -38.00&#10;            403.04 0.00 503.80 -23.25&#10;            604.56 0.00 700.08 -43.00&#10;            806.08 0.00 V 604.56 H 0 V 0.00 Z" fill="#358689"/><path d="M -10 46.50461538461539 S -178.00 14.50&#10;            0.00 46.50 100.76 23.25&#10;            201.52 46.50 302.28 23.25&#10;            403.04 46.50 466.56 6.50&#10;            604.56 46.50 705.32 2.50&#10;            806.08 46.50 V 604.56 H 0 V 46.50 Z" fill="#347d87"/><path d="M -10 93.00923076923078 S -175.00 57.01&#10;            0.00 93.01 100.76 69.76&#10;            201.52 93.01 294.04 63.01&#10;            403.04 93.01 503.80 69.76&#10;            604.56 93.01 659.08 69.76&#10;            806.08 93.01 V 604.56 H 0 V 93.01 Z" fill="#337485"/><path d="M -10 139.51384615384617 S -126.00 116.26&#10;            0.00 139.51 100.76 116.26&#10;            201.52 139.51 213.04 116.26&#10;            403.04 139.51 471.56 116.26&#10;            604.56 139.51 606.08 116.26&#10;            806.08 139.51 V 604.56 H 0 V 139.51 Z" fill="#326b83"/><path d="M -10 186.01846153846157 S -100.76 162.77&#10;            0.00 186.02 96.52 140.02&#10;            201.52 186.02 302.28 162.77&#10;            403.04 186.02 433.56 162.77&#10;            604.56 186.02 670.08 147.02&#10;            806.08 186.02 V 604.56 H 0 V 186.02 Z" fill="#316281"/><path d="M -10 232.52307692307696 S -100.76 209.27&#10;            0.00 232.52 100.76 191.52&#10;            201.52 232.52 302.28 209.27&#10;            403.04 232.52 503.80 207.52&#10;            604.56 232.52 705.32 209.27&#10;            806.08 232.52 V 604.56 H 0 V 232.52 Z" fill="#30597f"/><path d="M -10 279.02769230769235 S -120.00 239.03&#10;            0.00 279.03 100.76 255.78&#10;            201.52 279.03 302.28 255.78&#10;            403.04 279.03 435.56 245.03&#10;            604.56 279.03 705.32 255.78&#10;            806.08 279.03 V 604.56 H 0 V 279.03 Z" fill="#2f507d"/><path d="M -10 325.53230769230777 S -150.00 302.28&#10;            0.00 325.53 100.76 302.28&#10;            201.52 325.53 297.04 289.53&#10;            403.04 325.53 503.80 302.28&#10;            604.56 325.53 705.32 302.28&#10;            806.08 325.53 V 604.56 H 0 V 325.53 Z" fill="#2e477b"/><path d="M -10 372.03692307692313 S -100.76 342.04&#10;            0.00 372.04 61.52 327.04&#10;            201.52 372.04 302.28 331.04&#10;            403.04 372.04 467.56 340.04&#10;            604.56 372.04 705.32 333.04&#10;            806.08 372.04 V 604.56 H 0 V 372.04 Z" fill="#2d3e79"/><path d="M -10 418.5415384615385 S -142.00 383.54&#10;            0.00 418.54 100.76 373.54&#10;            201.52 418.54 288.04 395.29&#10;            403.04 418.54 483.56 395.29&#10;            604.56 418.54 705.32 395.29&#10;            806.08 418.54 V 604.56 H 0 V 418.54 Z" fill="#2c3577"/><path d="M -10 465.0461538461539 S -100.76 441.79&#10;            0.00 465.05 77.52 420.05&#10;            201.52 465.05 302.28 441.79&#10;            403.04 465.05 433.56 441.79&#10;            604.56 465.05 691.08 441.79&#10;            806.08 465.05 V 604.56 H 0 V 465.05 Z" fill="#2b2c75"/><path d="M -10 511.55076923076933 S -100.76 488.30&#10;            0.00 511.55 100.76 467.55&#10;            201.52 511.55 302.28 488.30&#10;            403.04 511.55 433.56 488.30&#10;            604.56 511.55 705.32 466.55&#10;            806.08 511.55 V 604.56 H 0 V 511.55 Z" fill="#2a2373"/><path d="M -10 558.0553846153847 S -100.76 534.80&#10;            0.00 558.06 51.52 534.80&#10;            201.52 558.06 257.04 531.06&#10;            403.04 558.06 494.56 520.06&#10;            604.56 558.06 705.32 520.06&#10;            806.08 558.06 V 604.56 H 0 V 558.06 Z" fill="#291a71"/></svg>